<svg xmlns="http://www.w3.org/2000/svg" height="249.54" viewBox="0 0 249.99999 249.53913" width="250"><g transform="matrix(1.8067 0 0 1.8067 .90061 1.099)"><g><path fill="#003876" d="m65.357 3.777c5.55 3.825 9.35-3 14.525-3.55 3.425-0.85 6.475 0.775 8.45 3.425 2 2.4 3.175 7.125 7.325 6.375 4.1-0.9 8.675-2.4 12.3 0.6 3.899 3.575 2.05 9.725 5.75 13.5 4.7 3.1 12.899 1.825 14.274 8.875 0.75 3.05-0.25 5.975-0.774 8.825-0.2 5.275 5.925 5.6 8.399 9.4 2.075 2.525 1.75 6.425 0.301 9.125-1.351 2.625-3.551 4.9-3.775 7.975-0.2 5.625 6.225 8.7 4.975 14.524-0.399 3.5-3.925 6.076-6.949 7.326-1.801 1.299-3.75 3.25-3.375 5.824 0.274 4.125 2.625 9.375-0.9 12.65-2.35 2.625-5.85 2.8-9.1 3.375-2.351 0.625-4.726 2.525-5.351 4.975-1.2 3.575-1.325 7.775-4.8 10.25-2.8 2.25-6.85 1.676-10.025 0.676-1.399-0.525-3.324-0.676-4.55 0.35-2.05 1.475-2.825 3.824-4.575 5.524-1.75 2.425-4.55 3.425-7.425 3.175-5.45-0.324-9.175-6.949-15.125-3.899-3.625 1.95-7.675 5.05-12 3.125-3.175-0.95-5.15-4.274-6.9-6.851-1.35-1.174-2.9-1.975-4.8-1.625-2.7 0.426-5.325 1.426-8.15 0.601-5.125-1.351-6.625-6.899-7.5-11.45-0.55-1.55-1.15-3.35-2.775-4.15-1.925-1.774-4.95-1.199-7.325-2.1-2.9-0.875-5.7-3.6-6.225-6.65-0.5-3.149 0.625-6.524 0.65-9.649-0.025-0.175-0.225-0.325-0.05-0.5-0.175-0.425-0.25-0.899-0.475-1.3-1.575-2.926-5.075-3.176-7.1-5.65-1.8-2.35-3.1-5.675-1.675-8.65 0.325-0.375 0.075-1.074 0.675-1.25-0.075-0.5 0.3-0.824 0.4-1.25 0.175-0.049 0.275-0.225 0.3-0.375 1.375-2.625 4.275-4.799 3.3-8.225-0.35-2.925-2.95-4.775-3.825-7.5-1.525-3.525-0.525-7.175 1.925-9.9 0.975-0.9 2.075-1.85 3.3-2.4 1.475-1.1 3.75-2 3.775-4.25-0.1-3.45-1.75-6.55-1.15-10.2 0.6-2.975 3.3-5.8 6.3-6.425 2.35-0.775 5-0.825 7.275-1.8 4.4-2.2 3.2-7.45 5.45-11.025 1.525-2.625 4.2-4.525 7.2-4.625 3.075-0.15 5.775 1.525 8.75 0.65 2.6-0.325 3.625-3.1 5.05-4.85 2.025-3.025 5.3-5.35 9-4.675 2.55 0.724 4.65 2.524 7.025 3.649z"/><path fill="#fff" d="m94.282 14.327c-0.4-0.05-0.7-0.35-1.101-0.4-13.149-6.175-29.575-6.575-43.5-1.75-1.55 0.525-3 1.25-4.55 1.8-9.9 4.7-19.125 11.85-25.45 21.425-1.275 2.05-2.775 4.05-3.775 6.225-0.925 1.675-1.5 3.5-2.4 5.175-0.25 1.325-0.875 2.625-1.325 3.95-1.175 3.875-2.2 7.95-2.45 12.075-0.525 3.8-0.325 8.125 0.05 11.875 0.225 2.976 0.7 5.875 1.45 8.625 0.15 0.5 0.2 1 0.425 1.45 1.375 5.324 3.7 10.275 6.425 15.05 3.65 5.875 8.2 11.375 13.85 15.601 0.2 0.149 0.4 0.475 0.65 0.5 5.35 3.85 11 7.199 17.175 9.174 0.475 0.15 1 0.201 1.425 0.476 2.5 0.675 5.125 1.351 7.8 1.75 13.85 2.226 28.55-0.5 40.275-7.75 10.725-6 19.65-16.875 24.175-27.851 1.976-4.324 3.226-8.975 4.025-13.799 2.425-15.651-1.275-31.625-10.025-44.101-6.049-8.5-14.2-15.25-23.149-19.5z"/><path fill="#003876" d="m68.928 10.824c-0.16359 0.01445-0.31406 0.04727-0.44531 0.10352-0.1 0.325 0.32461 0.24844 0.34961 0.52344-0.025 3.475 0.1 7.3-0.125 10.375-0.1 0.1-0.35078 0.10078-0.30078 0.30078 0.699 0.05 1.3508 0.125 2.0508 0 0.099-0.3-0.30078-0.22461-0.30078-0.47461v-9.9004c0-0.325 0.47656-0.52422 0.35156-0.82422-0.48825-0.0375-1.0893-0.14688-1.5801-0.10352zm4.4023 0.15234c0.024 0.625-0.29883 1.2508-0.04883 1.8008 0.2 0.05 0.32461-0.1 0.47461-0.25 0.95 0.025 2 0.19883 3 0.29883l0.17578 0.20117c-0.325 2.1-0.55117 4.2746-0.95117 6.3496-0.125 1.05 0.10156 2.3742-0.89844 2.9492-0.174 0.125 0.02461 0.25156 0.09961 0.35156 0.726-0.1 1.3008 0.15 1.9258 0.25 0.575-0.325-0.30078-0.57656-0.17578-0.97656 0.425-2.9 0.851-5.7992 1.25-8.6992l0.125-0.125c1.201 0.15 2.4766 0.12461 3.4766 0.72461l0.25-1.5488c-2.625-0.15-5.2506-0.65156-7.8516-0.97656-0.3-0.1-0.55056-0.27461-0.85156-0.34961zm-11.5 0.55274c-1.6816-0.06094-3.3727 0.28438-4.3477 1.6719-0.5 0.875-0.59961 2.075-0.09961 3 1.325 2.725 4.9992 0.575 6.6992 2.75 0.325 0.55 0.45 1.4016 0.125 1.9766-0.775 1.125-2.2496 1.1484-3.4746 0.89844-0.425-0.125-0.85-0.44844-1.25-0.39844 0.075 0.5 0.32461 0.94883 0.22461 1.5488 2 0.475 4.0746 0.10078 5.4746-1.4492 0.65-0.775 0.49961-2.0758 0.34961-3.0508-0.7-2.7-3.7242-2.0754-5.6992-2.2754-0.625-0.15-1.3508-0.59844-1.5508-1.2734-0.25-0.65 0.10156-1.2516 0.47656-1.7266 0.775-0.675 1.875-0.72383 2.875-0.67383 0.9 0.075 1.5746 0.77539 2.2246 1.1504 0-0.725-0.3-1.3016-0.375-1.9766-0.53125-0.0875-1.0918-0.15156-1.6523-0.17188zm22.303 1.373c-0.075 0.375 0.37461 0.69922 0.47461 1.0742 0.45 2.025 1.025 4.0008 1.375 6.0508-0.475 1.275-0.975 2.4988-1.375 3.7988 0 0.525-0.77539 0.25117-0.65039 0.82617 0.625 0.15 1.1758 0.47461 1.8008 0.59961 0.325-0.225-0.12422-0.40039-0.07422-0.65039 0.4-1.3 0.99844-2.5496 1.3984-3.8496 1.724-1.575 3.5762-3.5258 5.5762-4.5508-0.026-0.475-0.60156-0.32461-0.85156-0.59961-0.4-0.275-0.62461 0.17461-0.72461 0.47461-1.175 1.125-2.4992 2.1258-3.6992 3.3008h-0.125c-0.525-1.7-0.87617-3.4746-1.3262-5.2246 0.05-0.2 0.351-0.27539 0.25-0.52539-0.65-0.35-1.3248-0.57461-2.0488-0.72461zm-34.025 1.4414c-1.6554-0.08486-3.5473 1.4613-5.0254 1.9082 0 0.3 0.39961 0.39961 0.59961 0.59961 1.3 3 2.6754 5.975 3.9004 9 0.15 0.225-0.07422 0.60039 0.17578 0.77539 0.525-0.2 1.0238-0.49922 1.5488-0.69922 0.05-0.375-0.40039-0.27578-0.52539-0.55078-0.65-1.325-1.1492-2.6992-1.6992-4.0742 0.3-0.35 0.82422-0.1 1.1992-0.25 1.975 0.6 3.6766 1.7992 5.3516 3.0742 0.725 0 1.3988-0.20078 1.9238-0.55078-1.775-1.05-3.4746-2.2488-5.3496-3.0488-0.25-0.075-0.49961-0.125-0.72461-0.25 0.425-0.375 0.89922-0.92617 1.1992-1.4512 0.35-1.025-0.02539-2.1996-0.52539-3.0996-0.59375-0.96875-1.2964-1.3442-2.0488-1.3828zm-0.62695 0.82617c0.29492 0.02578 0.58945 0.13242 0.87695 0.35742l1.0254 1.1504c0.275 0.775 0.47383 1.8734 0.04883 2.6484-0.75 0.75-1.7504 0.87578-2.6504 1.3008-0.675-1.475-1.2996-3.0008-1.8496-4.5508 0.76875-0.3375 1.6641-0.98359 2.5488-0.90625zm-8.8984 3.3574c-0.25-0.025-0.22578 0.25-0.30078 0.375-1.45 1.125-3.0492 2.075-4.5742 3.125-0.25 0.4 0.37578 0.39961 0.55078 0.59961 1.5 2.175 3.2488 4.2496 4.6738 6.4746 0.275 0.7 1.1754 1.2254 1.0254 2.0254h0.22461l4.1504-2.75 0.84961-0.30078c-0.325-0.475-0.57461-0.97422-0.97461-1.4492-0.225 0.05-0.32461 0.37461-0.34961 0.59961l-3 2.0508h-0.17578c-0.875-1.125-1.6754-2.2996-2.4004-3.4746 0.825-0.725 1.8262-1.1508 2.7012-1.8008 0.225-0.2 0.49922 0.175 0.69922-0.125-0.175-0.6-0.65039-1.05-0.90039-1.625-0.3-0.025-0.17383 0.32461-0.29883 0.47461-0.8 1-1.9508 1.4508-2.9258 2.1758l-1.9238-2.5762v-0.25c1.25-0.7 2.3246-1.7746 3.7246-2.0996-0.15-0.525-0.50039-0.97422-0.77539-1.4492zm-6.9004 5c-0.675 0.425-1.2988 1-1.9238 1.5l-0.07617 0.22461c0.475 0.15 1.0004 0.34961 1.2754 0.84961 1.125 2.375 2.1008 4.8512 3.0508 7.3262v0.34961c-2.025-0.75-4.0258-1.5746-6.0508-2.3496-0.9-0.4-1.8742-0.60117-2.6992-1.2012-0.175-0.275 0.1-0.67539-0.125-0.90039-0.4 0.05-0.57656 0.52578-0.85156 0.80078-0.25 0.525-0.99922 0.9-0.94922 1.5 0.375-0.025 0.67422-0.2 1.0742-0.125 3.525 1.25 6.9262 2.7754 10.451 4.0254 0.2 0.125 0.47461 0.22461 0.72461 0.09961v-0.30078c-0.9-1.675-1.3758-3.5484-2.1758-5.2734-0.625-2.1-2.25-4.0258-1.625-6.4258l-0.09961-0.09961zm69.85 0.24023c-1.1262 0.05395-2.2324 0.47852-3.2012 1.0098-2.025 1.45-3.101 3.6738-2.75 6.0488 0.35 1.625 1.5776 3.1 3.2266 3.5 2.625 0.575 4.9238-0.69922 6.4238-2.8242 1.101-1.75 1.3248-4.1992 0.0508-5.9492-0.426-0.6-1.0986-1.0758-1.7246-1.4258-0.66562-0.29062-1.3497-0.39175-2.0254-0.35938zm-34.398 0.75977c-3.025-0.0125-6.0617 0.28906-8.9492 0.97656-1.525 0.275-3.025 0.62422-4.5 1.0742-2.525 0.825-5.0008 1.85-7.3008 3.25-5.625 2.85-10.849 7.4992-14.699 12.699-0.675 1-1.35 1.8504-1.875 2.9004-5.85 9-8.1008 20.25-5.9258 31.6 1.55 7.574 4.9 14.625 10.125 20.65 11.675 13.625 31.424 18.125 47.949 12 0.849-0.375 1.7512-0.67539 2.5762-1.1504 6.849-2.901 12.948-7.8746 17.523-14.1v-0.10156c1-1.2 1.875-2.5744 2.625-3.8984 0.726-1.151 1.25-2.3748 1.875-3.5508 2.2-4.75 3.5762-9.8758 3.9512-15.301 0.55-6.4-0.42439-12.449-2.4004-18.174l-0.17578-0.17578c-3.825-11.725-14.299-22.474-26.049-26.299-0.4-0.125-0.82617-0.17539-1.2012-0.40039-1.6-0.425-2.9748-0.87561-4.6738-1.0996-2.8375-0.5625-5.85-0.88789-8.875-0.90039zm35.268 0.43359c0.86863-0.0031 1.6936 0.30391 2.1816 1.1914 0.75 2.2-0.37578 4.375-2.1758 5.875-1.176 0.875-2.6992 1.4754-4.1992 1.0254-0.75-0.25-1.175-1.0516-1.375-1.7266-0.3-2.4 1.175-4.5992 3.125-5.6992 0.6625-0.35 1.5747-0.66289 2.4434-0.66602zm7.8809 5.8652c-0.25-0.05-0.30005 0.27578-0.37305 0.42578l-7.7266 6.375c-0.15 0.1-0.39883-0.000391-0.54883 0.09961 0.275 0.45 0.64844 0.85039 1.0234 1.2754 0.4 0.075 0.17578-0.44961 0.42578-0.59961l3.3984-2.7754c0.125 0 0.24978 0.025 0.30078 0.125 0.775 1.1 1.8508 2.0758 2.3008 3.3008 0.525-0.025 0.82578-0.62539 1.3008-0.77539v-0.17578c-1.05-0.775-1.8012-2.075-2.7012-3.125l-0.0488-0.25c0.849-0.65 1.6992-1.3746 2.5742-1.9746 0.899 1.2 1.9994 2.3258 2.5234 3.6758 0.4-0.3 0.77617-0.65039 1.2012-0.90039v-0.25c-1.5-1.275-2.3504-3.0012-3.6504-4.4512zm-88.875 3.125c-0.35 0.575-1.0742 1.075-1.0742 1.75h0.77539l7.9238 5.625c0.2 0.2 0.07656 0.57578 0.35156 0.67578 0.3-0.6 0.87461-1.1258 1.0996-1.6758l-0.80078-0.125c-2.25-1.6-4.5504-3.2488-6.7754-4.7988-0.425-0.375-1.1492-0.70117-1.1992-1.3262-0.075-0.1-0.17578-0.125-0.30078-0.125zm-3.8984 5.5762c-0.325 0.6-0.80117 1.225-0.82617 1.875 0.225 0.05 0.39961-0.075 0.59961-0.125 2.525 1.175 5.025 2.4246 7.5 3.7246v0.125c-3.075 1.3-7.0984 1.35-10.398 1-0.55 0.75-0.82617 1.5996-1.0762 2.4746 0.275 0.025 0.40078-0.275 0.67578-0.25l8.9238 3.9004 0.60156 0.55078c0.225-0.55 0.54961-1.1508 0.59961-1.6758-0.725 0.225-1.2508-0.4-1.9258-0.5-2.05-1-4.1746-1.825-6.2246-2.875l0.125-0.125c3.65-0.45 7.6492-0.65039 11.199-1.9004 0.225-0.125 0.57578-0.22383 0.55078-0.54883-3.075-1.725-6.2496-3.2008-9.3496-4.8008-0.575-0.075-0.44961-0.89961-0.97461-0.84961zm91.799 10.199-0.0508 0.30078c0.276 0.5 0.40061 1.0492 0.59961 1.5742 0.176 0.2 0.35156-0.1 0.35156-0.25 0.799-0.2 1.6734 0.12578 2.5234 0.17578 0.476 1.95 1.2 3.8004 1.625 5.7754l-1.75 1.6738-0.52344-0.04883c0.024 0.7 0.19944 1.4992 0.39844 2.1992 0.476-0.05 0.30078-0.69922 0.67578-0.94922l7.375-7.3262c0.324-0.3 0.82422-0.39883 1.1992-0.42383-0.125-0.6-0.19783-1.2508-0.54883-1.8008-0.224 0.075-0.42539 0.30078-0.65039 0.42578-3.35-0.3-6.7242-0.60039-10.074-0.90039-0.425 0-0.69939-0.42578-1.1504-0.42578zm4.625 2c1.799 0.225 3.7262 0.09961 5.4512 0.47461l-4 4.0254-0.20117-0.19922c-0.399-1.425-0.825-2.8758-1.25-4.3008zm-101.95 0.47461c-0.25 0.575-0.49961 1.2266-0.47461 1.8516l1.0742-0.05078 4.5 1.125c1.275 0.525 2.8004 0.40039 3.9004 1.2754 0.65 1.15 0.12539 2.5504-0.22461 3.6504-0.375 0.375-0.60039 0.94961-1.2754 0.72461-2.6-0.625-5.2754-1.1508-7.9004-1.6758-0.425-0.05-0.79961-0.37461-1.0996-0.59961-0.2 0.575-0.32461 1.1996-0.34961 1.8496 0.175 0.05 0.29883-0.05 0.42383-0.125 1.925 0.1 3.8012 0.72461 5.7012 1.0996 1.55 0.025 3.2238 1.2516 4.6738 0.10156 0.925-1.45 1.4-3.2004 1.25-5.0254-0.175-0.65-0.57422-1.2012-1.1992-1.5762l-4.8496-1.25c-1.35-0.55-3.0254-0.3-4.1504-1.375zm111.52 7.9883c-0.22015 0.03296-0.55735 0.38477-0.69922 0.46289l-5.875 0.84961c-1.5 0.05-2.925 0.60078-4.375 0.42578 0.151 0.5 0.15156 1.0746 0.22656 1.5996 0.25 0.325 0.32283-0.12461 0.54883-0.22461 1.576-0.325 3.2516-0.62578 4.8516-0.67578v0.84961c-1.424 1.85-3.4754 3.2258-5.0254 4.9258v1.6738c0.075 0.075 0.0766 0.25078 0.22656 0.17578 1.9-2.075 4.1492-3.725 5.9492-6 1.7 1.325 3.2508 2.7254 4.8008 4.2754 0.275-0.85 0-1.7754 0-2.6504l-0.125-0.125c-0.125 0.075-0.30078 0.075-0.42578 0.25-0.9-0.375-1.625-1.2508-2.5-1.6758-0.601-0.6-1.7-0.82383-1.75-1.7988 1.099-0.475 2.4734-0.32461 3.6484-0.59961 0.301 0.025 0.60156 0.39883 0.85156 0.17383l-0.125-1.5c0.0187-0.3375-0.071-0.43188-0.20312-0.41211zm-10.422 10.963c-0.25 0.6-0.24861 1.3016-0.22461 1.9766l0.125 0.125c0.925-0.824 2.3004-0.19978 3.4004-0.17578 0.651 0.075 1.3238 0.075 1.9238 0.25 0.025 0.3 0.0254 0.62422-0.22461 0.82422-1.8 1.401-3.7992 2.2768-5.6992 3.4258-0.326 0.674-0.47656 1.4234-0.60156 2.1484 0.05 0.125 0.17578 0.15 0.30078 0.125 1.725-1.75 3.825-2.8242 5.75-4.1992h0.30078c-0.05 0.65-0.2 1.275 0.125 1.875 0.475 0.725 1.2496 1.275 2.0996 1.375 1.025 0.15 2.0742 0.05022 2.8242-0.67578 0.576-1.324 0.32656-2.774 0.60156-4.25 0.025-0.574 0.14961-1.199 0.0996-1.75-0.201-0.074-0.29961 0.12517-0.47461 0.20117l-7.8516-0.72656c-0.85-0.1-1.8006 0.000172-2.4746-0.54883zm5.9492 2.2246 4.2012 0.42578c-0.025 1-0.14961 1.949-0.34961 2.875-0.55 0.799-1.7776 0.54883-2.6016 0.42383-0.575-0.1-1.176-0.44961-1.5-0.97461 0.1-0.9 0.074-1.949 0.25-2.75zm-97.924 0.84961c-0.425 0.077-0.90117 0.04961-1.3262 0.22461-0.025 0.226 0.1 0.35156 0.25 0.47656l0.65039 3.5996c-1.3 0.5-2.775 0.75156-4.125 0.97656-0.275-1.275-0.57383-2.6744-0.54883-3.9004l-1.5 0.17578c0.325 1.324 0.57461 2.6752 0.72461 4.0742-1.025 0.35-2.1258 0.52539-3.1758 0.77539l-0.17383-0.17578c-0.175-1.375-0.65078-2.7492-0.55078-4.0742-0.45 0.051-0.925 0.12478-1.375 0.17578 0 0.149-0.025 0.299 0.125 0.375 0.325 1.75 0.75 3.4734 1 5.2734 0.275 0.024 0.39961-0.22678 0.59961-0.30078 3.4-0.625 6.6246-1.6756 10.1-2.0996 0.15 0.049 0.42539 0.174 0.52539 0-0.45-1.526-0.70039-3.1008-1.0254-4.6758-0.15-0.275 0.07617-0.67439-0.17383-0.90039zm93.248 7.8008c-1.75 0.05-3.3992 0.82422-4.3242 2.3242-0.65 1.15-0.801 2.8502-0.25 4.0762 0.8 2.125 3.0748 3.6496 5.3008 3.8496 1.951 0.15 3.6246-0.49978 4.8496-2.0508 1.226-1.699 0.95-3.8752-0.125-5.5742-1.375-1.825-3.3002-2.575-5.4512-2.625zm-91.348 1.3184c-0.14766 0.0094-0.28789 0.1875-0.40039 0.28125l-9.5996 3.9746-0.47656-0.17383c-0.15 0.674 0.45078 1.1996 0.55078 1.8496 0.6 0.275 0.22539-0.62461 0.65039-0.72461 1.3-0.476 2.5754-1.2258 3.9004-1.4258 0.575 1.525 1.2738 3 1.9238 4.5v0.40039c-1.5 0.525-2.7992 1.65-4.4492 1.625 0.15 0.6 0.52461 1.0988 0.72461 1.6738 0.5 0.3 0.24961-0.52344 0.72461-0.64844 2.875-1.326 5.75-2.6502 8.625-3.9512 0.3-0.424 0.79961 0.05078 1.0996-0.19922-0.325-0.5-0.57344-1.0998-0.89844-1.5508-0.675 0.926-1.9254 1.1248-2.9004 1.6758-0.575 0.3-1.2258 0.60156-1.8008 0.72656-0.65-1.574-1.2996-3.15-1.9746-4.75 1.3-0.75 2.7492-1.1518 4.0742-1.8008 0.3-0.201 0.65039 0.19944 0.90039-0.10156-0.35-0.375-0.27539-0.92322-0.52539-1.3242-0.05-0.04375-0.09922-0.05977-0.14844-0.05664zm90.539 0.23828c2.0957-0.12867 4.1906 0.93161 5.4844 2.6934 0.65 0.901 0.77578 2.2238 0.17578 3.1738-0.95 1.175-2.4754 1.4512-4.0254 1.2012-1.951-0.375-4.1496-1.7762-4.7246-3.8262-0.226-1.075 0.22344-1.9992 1.0234-2.6992 0.669-0.325 1.3678-0.50008 2.0664-0.54297zm-6.3398 7.668c-0.424 0.325-0.60039 0.95-1.0254 1.375 0.075 0.551 0.45078 0 0.80078 0.25 2.275 1.6 4.6492 3.0998 6.8242 4.8008-3.55 0.074-8.024-0.476-11.75 0.25-0.1 0.174-0.5 0.02461-0.375 0.34961l7.5762 6.125 0.89844 0.90039c0.15 0.173-0.0742 0.49944 0.17578 0.64844 0.575-0.45 0.975-1.1738 1.375-1.7988l-0.94922-0.0508c-2.05-1.625-4.15-3.2986-6.125-4.9746 3.325-1 7.2-0.82439 10.25 0.59961 0.45-0.549 0.82344-1.0992 1.1484-1.6992 0.225-0.301 0.37656-0.65 0.47656-1-0.375-0.099-0.77617 0.27483-1.2012 0.04883-2.475-1.45-4.825-3.2248-7.25-4.7988-0.375-0.25-0.70061-0.62539-0.84961-1.0254zm-78.176 4.0273-0.72461 0.77539c-2.5 1.625-4.725 3.5998-7.25 5.1738l-1.7988-2.4746c-0.375-0.3-0.15078-0.949-0.55078-1.125l-1.1992 0.82422-0.05078 0.25c1.7 1.399 2.6004 3.5484 4.0254 5.2734 0.575 0.775 1.2238 1.5254 1.5488 2.4004 0.45-0.125 0.95039-0.55022 1.1504-0.94922-1-0.9-1.7254-2.0762-2.4004-3.2012 1.225-0.975 2.5004-1.85 3.7754-2.75 1.5-0.899 2.7758-2.375 4.4258-2.875-0.175-0.5-0.55117-0.97426-0.95117-1.3223zm67.852 12.947c-0.675 0.125-1.2258 0.75039-1.4258 1.4004-0.299 0.676-0.04939 1.4506 0.47461 1.9746 0.5 0.526 1.3006 0.65078 1.9766 0.42578 0.5-0.224 0.92344-0.65039 1.1484-1.1504 0.226-0.5 0.101-1.15-0.125-1.625-0.4-0.775-1.1738-1.1244-2.0488-1.0254zm-59.645 0.66211c-0.64819-0.0413-1.3398 0.24281-1.7305 0.78906-0.425 0.5-0.42656 1.3496-0.22656 1.9746 0.35 0.675 1.0258 1.0992 1.8008 1.0742 0.675-0.074 1.4008-0.424 1.6758-1.125 0.3-0.798 0.17344-1.7004-0.47656-2.2754-0.284-0.27-0.657-0.41-1.046-0.43zm15.02 3.9141c-0.9 1.099-1.925 1.7992-3 2.5742-0.05 0.474-0.42578 0.87422-0.30078 1.3242 0.75-0.05 1.3504-0.79922 2.0254-1.1992l0.07422 0.0508c-0.7 2.399-1.4738 4.7494-2.1738 7.1484-0.125 0.174-0.32539 0.35139-0.40039 0.52539 0.675 0.101 1.2746 0.576 1.9746 0.5-0.075-0.199-0.12578-0.37483-0.17578-0.54883 0.925-3.375 2.1-6.6254 3-10.025-0.275-0.3-0.72344-0.15061-1.0234-0.34961zm27.523 0.35938c-1.3123-0.0797-2.6801 0.33398-3.5996 1.3652-1.625 1.7-1.5982 4.5996-0.82422 6.5996 0.725 1.65 2.3242 3.051 4.0742 3.375 1.776 0.275 3.6518-0.62578 4.5508-2.1758 1.05-1.95 1.1754-4.6484-0.09961-6.5234-0.651-1.125-1.7262-1.9004-2.8262-2.4004-0.40625-0.13125-0.83797-0.21367-1.2754-0.24023zm-20.311 0.82812c-0.18442-0.008-0.37383-0.004-0.56445 0.0117-1.2 0.125-2.4992 0.99961-2.8242 2.2246-0.25 1.15 0.32539 2.101 1.1504 2.875-0.225 0.201-0.47461 0.27578-0.72461 0.42578-1.2 0.675-1.7258 1.9496-1.5508 3.3496 0.125 1.025 1.0758 1.8742 1.9258 2.4492 1.45 0.799 3.5246 0.67539 4.8496-0.34961 0.95-0.875 1.3754-2.0248 1.1504-3.2988-0.275-0.875-0.8-1.6254-1.625-2.1504 0.25-0.349 0.74922-0.62539 1.0742-1.0254 0.625-0.775 0.6-1.8754 0.25-2.7754-0.7-1.0719-1.8204-1.683-3.1113-1.7363zm19.822 0.0606c0.24614 0.009 0.49428 0.0517 0.73828 0.12695 0.675 0.299 1.3248 0.80018 1.8008 1.4512 1.4 1.675 1.7746 4.5484 0.72461 6.5234-0.45 0.75-1.2738 1.3242-2.1738 1.3242-1.6-0.049-2.9526-1.5492-3.4766-2.9492-0.725-1.7-0.74922-4.1 0.42578-5.625 0.50625-0.60075 1.2225-0.87771 1.9609-0.85156zm-6.1602 0.47656c-2.425 0.25-5.151 0.30022-7.5 0.19922 0.025 0.526-0.05117 1.0996 0.04883 1.5996 0.25 0.024 0.32578-0.32383 0.55078-0.29883 1.675 0 3.1228-0.19978 4.7988-0.0508-1.575 3.375-3.0488 6.8264-4.7988 10.15l1.9238-0.0742c0.025-0.25-0.05022-0.55039 0.05078-0.77539l4.5-9.6504c0.15-0.375 0.65078-0.65061 0.42578-1.0996zm-13.523 0.54102c0.39141 0.0211 0.74688 0.13362 1.0469 0.35937 0.65 0.475 0.75156 1.2248 0.60156 1.9238-0.2 0.726-0.97578 1.275-1.6758 1.375-0.55-0.049-1.125-0.0486-1.5-0.47461-0.4-0.526-0.62578-1.1746-0.42578-1.8496 0.15-0.7 0.90078-1.2012 1.5508-1.3262 0.1375-0.0125 0.27188-0.0149 0.40234-0.008zm-0.45508 4.8125c0.70361 0.0298 1.3652 0.34961 1.8027 1.0215 0.5 0.8 0.37578 1.85-0.07422 2.625-0.625 0.85-1.6262 1.2496-2.7012 0.97461-0.8-0.199-1.3738-0.975-1.5488-1.75-0.1-1.1 0.25-2.1 1.25-2.625 0.4125-0.17812 0.84932-0.26396 1.2715-0.24609z"/><path fill="#fff" d="m86.356 30.052c-9.975-4.7-23.75-4.725-33.774-0.175-13.95 6.075-23.95 19.775-25.325 34.675-1.625 17.4 7.575 33.65 22.85 41.525 7.025 3.524 15.425 4.976 23.775 4.075l0.1-0.125c5.476-0.65 10.5-2.4 15.2-4.975 8.875-4.951 16.476-14.15 19.375-23.576 3.5-10.174 2.525-22.424-2.175-31.75-3.776-8.324-11.75-15.924-20.026-19.674z"/></g><path fill="#ffd520" d="m59.515 47.983 0.377 0.001c0.175 0.7 0.55 1.35 1.15 1.8 0.45 0.25 1 0.3 1.5 0.425-0.125 0.525-0.75 0.75-1.025 1.15l0.125 0.125c1.175 0.175 2.325-0.1 3.3-0.6-0.075 0.475-0.475 0.85-0.6 1.3 1.225 0.4 2.475-0.3 3.475-1.075 0.325 0.475 0.5 1 1.025 1.375v9.85l10.675 7.625c2.9 0.1 6.025 0.025 8.825 0.05l0.1-0.125c-0.05-6.2 0.101-12.475 0.125-18.7 0.15-0.825 0.45-1.575 0.851-2.3l-11.275-0.1c0.226-0.225 0-0.65 0.4-0.725l-19.028-0.076z"/><g><path fill="#003876" d="m76.879 28.377c-0.125-0.05-0.15 0.07578-0.25 0.05078-0.325 2.425-2.3508 4.15-3.4258 6.25-1 1.35-0.02422 3.4988-0.82422 4.9238-0.925-0.35 0.09883-0.79922 0.04883-1.3242 0-0.2-0.375-0.37578 0-0.55078 0.075-0.375-0.04883-0.65039-0.42383-0.77539l0.42383-0.47461c0.05-0.2-0.075-0.32461-0.25-0.34961 0-0.175 0.12617-0.30078 0.20117-0.42578 0.075-0.15 0.125-0.47461-0.125-0.47461l0.59961-0.79883c0.051-0.2-0.074-0.32656-0.25-0.35156-0.05-0.15 0.12478-0.19883 0.17578-0.29883 0.85-0.475-0.52617-0.825 0.42383-1.25 0.224-0.275-0.12361-0.275-0.22461-0.5 0.101-0.325 0.49861-0.625 0.34961-1-0.526 0.275-0.89983 0.89922-1.5488 0.82422-1.25 0.15-1.8262-1.7242-3.0762-1.1992-0.4 0.95-0.89883-0.325-1.5488 0-0.325 0.075-0.62539 0.32461-0.77539 0.59961-0.2 0.475-0.2 0.97422 0 1.4492 0.175-0.3 0.45039-0.32383 0.77539-0.29883 0.475 0.375 0.77422 1.0238 0.82422 1.5488-0.475-0.2-0.92383-0.49922-1.2988-0.94922-0.075 0-0.15117-0.02422-0.20117 0.05078 0.25 0.875 0.19961 1.9234 0.97461 2.5234-0.275 0.25-0.64844 0.22656-0.89844 0.47656 0.125 0.15-0.0012 0.42383 0.17383 0.54883 0.225 0.375-0.34961 0.20078-0.47461 0.42578 0.025 0.275 0.24961 0.49922 0.47461 0.69922-0.025 0.225-0.24883 0.4-0.42383 0.5-0.025 0.325 0.27383 0.39961 0.42383 0.59961 0 0.35-0.24883 0.47539-0.42383 0.77539-0.375-1.6 0.12383-3.55-0.95117-4.875-1.975-1.375-3.4504-3.2242-3.9004-5.4492-0.675 0.1-0.19883 1.125-0.42383 1.625-0.35-0.4-0.52539-0.85039-0.77539-1.2754-0.25-0.175 0.02539-0.92539-0.47461-0.65039-0.175 0.75 0.05 1.3508 0 2.0508-0.45-0.175-0.35078-0.69961-0.67578-0.97461-0.125 0-0.22383 0.025-0.29883 0.125 0.375 1.025 0.49961 2.2238 0.59961 3.2988-0.525-0.4-0.62617-0.99922-1.0762-1.4492-0.125-0.05-0.19883 0.1-0.29883 0.125 0.05 0.175 0.04883 0.34961 0.17383 0.47461 0.125 1.025 0.50156 1.9992 0.60156 2.9492-0.325-0.2-0.45039-0.72344-0.90039-0.77344-0.325 0.225 0.175 0.52344 0 0.77344-1.225 0.2-2.5004 0.30039-3.6504 0.65039-1.875 0.55-3.9496 0.65078-5.3496 2.1758-0.325 0.425 0.1 0.82422 0.25 1.1992 0.225 0.3 0.70039 0.32461 0.77539 0.72461-1.8 0.6-4.1512 0.40078-5.9512-0.07422-0.65-0.125-1.2254-0.65039-1.9004-0.52539v0.09961c0.525 0.875 1.3016 1.6766 2.1016 2.3516l-0.125 0.17383c-1.475 0.575-3.05 0.82539-4.625 1.1504l-0.17578 0.17578 0.34961 0.34961c3.275 1.275 7.0512 1.6496 10.576 0.84961 1.4-0.35 2.8992-0.62578 3.9492-1.6758 0.3-0.675-0.47539-1.0242-0.65039-1.5742 1.6-0.525 3.3246-0.8 5.0996-1l0.10156-0.19922c0.35 0.275 0.52461 0.67461 0.84961 0.84961l-0.05078 0.04883c-0.4 0.475-1.0754 0.62539-1.2754 1.1504 0.525 0.075 1.0762 0.075 1.5762 0.25 0.325 0.1 0.75 0.000782 1 0.30078-0.05 0.275-0.32539 0.47422-0.52539 0.69922-0.275 0.35-0.87539 0.25078-0.90039 0.80078 0.7 0.05 1.3996 0.09883 2.0996 0.17383 0.4 0.6-0.44961 0.9-0.59961 1.375-0.125-0.05-0.29883-0.19883-0.42383-0.04883 0.1 0.9-0.45078 1.7742-0.05078 2.5742 0.175 0.7 0.92578 1.0512 1.5508 1.2012 0.3 0.15 0.74844-0.07617 1.0234 0.17383-0.225 0.425-0.57344 0.92539-1.0234 1.1504 0.775 0.15 1.7242-0.02578 2.4492-0.30078 0.325-0.075 0.62539-0.39883 0.90039-0.42383-0.05 0.5-0.29961 0.94883-0.47461 1.4238 1.2 0.25 2.1242-0.575 3.0742-1.125 0.225 0.5 0.42539 1.0258 0.90039 1.4258 0.55 0.4 1.2746 0.80078 1.9746 0.55078-0.125-0.475-0.525-0.92617-0.375-1.4512l0.84961 0.42578c0.526 0.225 1.2758 0.14922 1.6758-0.17578-0.225-0.4-0.87344-0.89922-0.52344-1.4492 0.674 0.4 1.4224 0.67461 2.2734 0.72461 1.175 0.1-0.176-0.67539 0-1.0254 0.899 0.025 1.6752-0.22461 2.4492-0.47461 1.4-0.65 1.0762-2.4004 1.2012-3.6504 0.025-0.225 0.3-0.34961 0.25-0.59961-0.075-0.075-0.149-0.1-0.25-0.125-0.625 0.375-0.70117 1.15-1.0762 1.625l-0.17383-0.90039c-0.625 0.05-0.25139 1.05-0.77539 1.25-0.45-0.75-1.2-0.27461-1.875-0.22461-0.176-0.225-0.14961-0.49961-0.22461-0.72461 0.476-0.25 0.92383 0.42383 1.4238 0.29883 0.125-0.4-0.324-0.74922 0-1.0742 0.75 0.25 1.3248-0.22422 2.0508-0.19922-0.051-0.475-0.74978-0.35039-0.67578-0.90039 0.375-0.3 0.77539 0.04922 1.1504 0.07422-0.15-0.65-0.70039-1.15-0.65039-1.875 0.975-0.125 1.7504-1.0246 2.2754-1.8496 2.025 0.3 3.925 0.87422 5.875 1.3242l0.17578 0.17578c-0.025 0.375-0.40156 0.47539-0.60156 0.77539-0.2 0.5 0.07756 0.95039 0.47656 1.2754 3.975 2.1 9.4242 2.3984 13.699 0.89844 0.224-0.375 1.1742-0.12383 0.82421-0.79883-1.475 0.075-2.7234-0.37539-4.0234-0.77539-2.45-0.525 1.0246-1.6758 0.72461-2.9258l-0.42578-0.07422c-1.549 0.575-3.4734 0.67461-5.1484 0.59961-0.675-0.075-1.4258-0.12539-1.9258-0.52539 0.625-0.375 0.90156-0.99922 0.85156-1.6992-0.15-0.475-0.62539-0.79922-1.0254-1.0742-2.725-1.25-5.699-1.9754-8.875-2.1504-0.399-0.125 0-0.52461-0.125-0.72461-0.25-0.125-0.47539 0.17461-0.65039 0.34961 0.1-0.725 0.22656-1.7012 0.35156-2.4512-0.15-0.175-0.27578 0.175-0.42578 0 0.05-0.45 0.175-0.92422 0.125-1.3242 0-0.5 0.025-1-0.25-1.375-0.5 0.175-0.37539 0.975-0.90039 1.25-0.074-0.65-0.29883-1.2746-0.29883-1.9746-0.599-0.525-0.30039 0.52461-0.65039 0.59961l-0.125-0.125c-0.125-0.425-0.19834-0.9-0.52734-1.25zm-11.047 16.5c-0.325 0.375-0.37578 0.875-0.42578 1.375-0.525-0.025-1.1238-0.24922-1.4238 0.30078 0.1 0.25 0.12461 0.57344 0.09961 0.77344-0.425-0.125-0.29961-0.59844-0.47461-0.89844 0.525-0.225 1.1492-0.22617 1.5742-0.70117l0.65039-0.84961zm-2.75 0.59961c0.125 0.125 0 0.40078-0.125 0.55078l-0.125 0.09961-0.25-0.34961 0.5-0.30078zm-0.67578 0.30078c-0.45 0.125-0.84922 0.50039-1.1992 0.77539l-0.22461-0.35156c0.375-0.225 0.94883-0.27383 1.4238-0.42383zm0.17578 0.65039c0 0.125 0.12422 0.175 0.19922 0.25h0.22656c-0.075 0.3-0.27578 0.54961-0.42578 0.84961-0.175-0.375-0.175-0.72461 0-1.0996zm-16.074 1.4492-0.05078 0.17578c0.95 0.875 1.6016 1.8742 1.7266 3.0742 0.025 8.426 0.02344 16.801-0.22656 25.426-0.25-0.051-0.47383-0.12478-0.67383-0.30078-2.6-0.875-5.2004-0.32461-7.9004-0.22461 2.05-2 3.3742-4.3746 3.8242-7.0996 0.325-4.85-1.175-9.1766-4.375-12.602-1.175-0.85-1.9988-2.0234-3.4238-2.1484v0.25c0.95 1.925 1.7988 3.9488 2.1738 6.0488-1.075-0.125-2.1992-0.24961-3.1992-0.34961-0.425 0.175-1.3758-0.17461-1.5508 0.40039 3.2 1.725 6.625 4.7754 7.25 8.5254 0.075 1.525 0.25039 3.2242-0.59961 4.4492-0.5 0.576-1.3996 0.42561-2.0996 0.34961-1.775-0.625-4.4758-1.449-6.0508 0.25-0.45 0.451-0.425 1.2258-0.25 1.8008l1.875 2.3242c1.125 1.476-0.14922 3.051 0.17578 4.625 0.325 0.851 1.2496 1.125 1.9746 1.375 2.075 0.425 4.4758 0.02539 6.5508-0.09961 2.1-0.05 4.4988-0.10078 6.2988 0.94922-0.125 0.575 0.6 1.1018 0 1.5508-0.625 0.426-1.5984 0.49922-2.2734 0.19922-2-0.8-4.4508-1.7988-6.6758-0.79883-2.8 1.475 0.05039 4.3998-0.59961 6.4238-0.025 0.925-0.22617 2.075 0.17383 2.875 0.325 0.899 1.2516 1.5012 2.1016 1.7012 0.6 0.151 1.125 0.40061 1.75 0.47461 8.25 2.75 14.325 10.8 23.35 11.699 5.725 0.149 10.925-1.75 15.65-4.375 3.326-1.95 6.2746-4.8242 9.8496-6.1992 1.824-0.799 4.024-0.72439 5.625-2.0254 0.55-0.625 0.274-1.6244 0-2.2734-1.476-2.075 1.0742-3.3758 1.5742-5.1758 0.2-0.85-0.02461-1.7246-0.72461-2.2246-2.974-1.276-6.0742 1.2974-8.8242-0.35156 0.175-0.35 0.15-0.74944 0.25-1.1484 0.351-0.326 0.726-0.57639 1.125-0.77539 3.875-1.475 7.7992 1.324 11.699 0.125 1.025-0.625 1.0494-1.9258 0.90039-3.0508-0.375-1.9 1.4234-2.7986 2.3984-4.0996 0.526-0.725 0.57578-1.949 0.17578-2.75-0.65-1.074-2.0508-1.0252-3.0508-1.0742-1.625-0.125-3.0238 1.5248-4.5488 0.42383-0.75-1.6-0.60078-3.7246-0.30078-5.4746 0.524-3.475 3.5-6.9496 7-7.7246 0.1-0.15 0.1-0.225 0-0.375-1.75-0.025-3.2004 0.29883-4.9004 0.17383-0.024-0.475 0.30056-0.8 0.35156-1.25 0.449-1.675 1.524-3.1738 1.625-4.9238h-0.30078c-3.324 2.225-6.0992 5.7738-7.1992 9.5488-1.075 4.625 0.324 9.6014 4.125 12.65l-0.10156 0.125c-2.45-0.449-5.3488-0.699-7.7988-0.25-0.325 0.201-0.75039 0.30078-1.0254 0.42578v-20.875l0.05078-4.8008c0.274-1.275 0.8-2.4246 1.625-3.4746l-0.05078-0.07422-12.5 0.07422c-0.399 0.075-0.17539 0.49961-0.40039 0.72461l11.275 0.09961c-0.4 0.725-0.69961 1.4758-0.84961 2.3008-0.025 6.225-0.175 12.499-0.125 18.699l-0.10156 0.125c-2.801-0.025-5.9252 0.05117-8.8242-0.04883l-10.676-7.625v-9.8496c-0.525-0.375-0.69844-0.9-1.0234-1.375-1 0.775-2.2516 1.4742-3.4766 1.0742 0.125-0.45 0.52656-0.82578 0.60156-1.3008-0.975 0.5-2.1258 0.77656-3.3008 0.60156l-0.125-0.125c0.275-0.4 0.90039-0.62539 1.0254-1.1504-0.5-0.125-1.05-0.17578-1.5-0.42578-0.6-0.45-0.97539-1.0988-1.1504-1.7988l-13.324-0.05078zm5.1738 41.949 0.34961 0.05078 2.5762 1.252 12.076 5.8242c0.7 0.274 1.3234 0.97444 2.1484 0.77344 5.174-2.474 10.425-4.7742 15.65-7.0742 0.75 0.675 1.6996 0.90022 2.5996 1.1992-5.601 3.451-10.749 8.1502-17.6 8.7012-5.5 0.974-10.05-1.4258-14.1-4.5508-2.425-1.55-4.8-3.199-7.375-4.375 1.2-0.526 2.5988-0.85078 3.6738-1.8008z"/><path fill="#ffd520" d="m80.055 35.928c-0.375 0.55-0.20061 1.45-0.72461 2 0.474-0.05 0.52344-0.65078 1.0234-0.80078 0.125 0.05 0.22578 0.15078 0.17578 0.30078-0.575 0.75-0.551 1.7234-1.25 2.3984 0.349-0.025 0.50022-0.49844 0.82422-0.64844 0.375 0.175 0.05217 0.52344 0.07617 0.77344 2.226 0.3 4.2486 1.075 6.4746 1.375-0.526-0.35-1.1248-0.49844-1.6758-0.77344-0.024-0.125 0.000562-0.22578 0.10156-0.30078 0.75 0.175 1.7006 0.34961 2.2246 0.59961-0.6-0.475-1.3496-0.64922-1.9746-1.0742-0.075-0.1-0.07422-0.22578 0.05078-0.30078 0.875 0.075 1.8256 0.52539 2.3496 0.77539-0.274-0.25-0.65039-0.50039-1.0254-0.65039-0.425-0.275-1.1492-0.25039-1.3242-0.77539 0.45-0.225 1.1742 0.25078 1.4492 0.17578-0.325-0.275-0.84922-0.22578-1.0742-0.67578l0.17578-0.17383c0.95 0.2 1.976 0.57461 2.75 0.84961-0.774-0.8-1.875-0.74922-2.75-1.3242 0.026-0.1-0.05117-0.22578 0.04883-0.30078 1 0.1 1.8754 0.47461 2.7754 0.84961-0.275-0.275-0.59939-0.42461-0.90039-0.59961-2.449-0.95-5.0488-1.5242-7.8008-1.6992zm-21.848 0.25c-0.85 0.125-1.7242 0.24961-2.5742 0.34961-1.6 0.525-3.4758 0.40039-4.9258 1.2754h0.42578c0.475-0.2 1.125-0.35078 1.625-0.17578-0.325 0.45-0.92617 0.29961-1.3262 0.59961l1.5-0.25c0.1 0.075 0.125 0.17578 0.125 0.30078-0.725 0.4-1.6004 0.39961-2.2754 0.84961h0.10156c0.9-0.125 1.7992-0.8 2.6992-0.375-0.375 0.525-1.2258 0.42539-1.8008 0.77539 0.775 0.125 1.5266-0.22578 2.2266 0.07422-0.475 0.725-1.6254 0.30117-2.2754 0.82617 0.45-0.1 0.975 0.04922 1.375-0.17578 0.375-0.025 0.87422-0.15078 1.1992 0.07422 0 0.2-0.17383 0.20156-0.29883 0.35156-0.6 0.1-1.1766 0.24961-1.7266 0.47461 2.15-0.3 4.2266-0.87617 6.2266-0.95117-0.2-0.775-0.45039-1.4996-0.77539-2.2246 0.4-0.45 0.75039 0.30078 1.1504 0.42578-0.175-0.625-0.37578-1.5246-0.67578-2.2246zm29.35 3.125c0.2 0.175 0.52539 0.34961 0.65039 0.34961-0.2-0.175-0.42539-0.22461-0.65039-0.34961zm-37.199 1.5c-2.075 0.5-4.6496 0.62383-6.7246 0.04883 0.425 0.5 0.92422 1.0262 1.4492 1.4512-0.1 0.075-0.05 0.19883-0.125 0.29883-1.275 0.55-2.5746 0.95117-3.9746 1.2012v0.04883c3.875 1.4 8.1992 1.0254 11.949-0.34961 0.225-0.15 0.60039-0.25078 0.65039-0.55078-0.775 0.125-1.5242 0.525-2.3242 0.375-0.8-0.375-0.70039-1.3246-0.77539-2.0996l-0.125-0.42383zm38.449 0.04883c-0.7 0.7-0.40017 1.8004-1.0762 2.5254-0.625 0.2-1.1978-0.12578-1.7988-0.17578 0.125 0.475 0.62422 0.50156 0.94922 0.72656 3.375 1.325 7.7008 1.6246 11.301 0.59961-1.05-0.3-2.149-0.60039-3.125-1.1504-0.25-0.25-0.80039-0.17539-0.77539-0.65039 0.525-0.525 1.1998-1 1.6758-1.625v-0.125c-2.175 0.675-5.0244 0.55-7.1504-0.125zm-40.025 8.4746c0.5 1.1 0.54883 2.2504 0.42383 3.5254 0.475 0.7 1.3516 0.97617 1.9766 1.5762l11.773 8.3984c2.625 1.75 5.1758 3.6512 7.8008 5.4512v0.04883l12.35 8.8262 5.1016 3.5488c0.125-0.976 0.04922-2 0.07422-3-2.8-2.175-5.7234-4.0738-8.5234-6.1738l-12.125-8.6504c-6.276-4.426-12.527-9.277-18.853-13.552zm-12.174 6c0.6 1.725 1.1988 3.4762 1.7988 5.2012-0.075 0.3 0.25039 0.69961-0.22461 0.72461-1.125-0.2-2.425-0.32461-3.5-0.34961 3.05 2.025 5.2012 5.2504 6.2012 8.2754-0.2-1.475-0.75117-2.8254-1.3262-4.1504-0.175-0.55-0.87539-0.95078-0.77539-1.5508 1.375 1.225 1.8012 3.05 2.3262 4.75 0.225 0.35 0.27383 0.85117 0.42383 1.2012-0.275-1.45-0.62422-2.8512-1.0742-4.2012-0.35-0.625-0.52539-1.2988-0.77539-1.9238-0.025-0.2 0.17578-0.1 0.30078-0.125 0.85 1.4 1.2496 3.1738 1.7246 4.5488-0.2-1.825-0.875-3.4504-1.375-5.1504 0.075-0.075 0.125-0.15 0.25-0.125 0.625 1.325 1.0008 2.7504 1.4258 4.1504-0.175-1.225-0.32539-2.4496-0.65039-3.5996-0.075-0.325-0.4-0.62461-0.25-0.97461 0.175-0.05 0.25 0.09922 0.375 0.19922 0.525 1.5 0.89922 3.0746 1.0742 4.7246-0.075-4.675-2.2242-8.8-5.9492-11.625zm64.197 0.35156c-3 2.3-5.1482 5.5242-5.8242 8.8242 0.351-0.725 0.49861-1.6008 1.0996-2.1758l0.10156 0.125c-0.325 1.15-0.80117 2.2516-0.95117 3.4766 0.475-1 0.70117-2.1 1.4512-3 0.201-0.075 0.12361 0.175 0.22461 0.25-0.475 1.35-0.97422 2.6734-1.1992 4.1484 0.325-1.425 0.79922-2.7984 1.5742-4.0234 0.125-0.05 0.19978 0.075 0.30078 0.125-0.6 1.425-1.0254 3.1-1.2754 4.5 0.4-1.125 0.62617-2.325 1.2012-3.375 0.2-0.275 0.32344-0.95039 0.77344-0.77539-0.35 1.125-0.84922 2.1746-1.0742 3.3496 0.875-2.225 2.4508-4.6258 4.6758-5.8008l-2.7012 0.17578c-0.125-0.1-0.19883-0.25078-0.17383-0.42578 0.55-1.825 1.2489-3.7234 1.7969-5.3984zm-51.598 0.94922-0.125 3.5488c1.65 1.375 3.4496 2.6004 5.2246 3.7754l14.525 10.449 6.25 4.4258c3.975 2.925 8 5.5766 12 8.6016h0.22461c0.625-0.775 0.92439-1.6762 0.90039-2.7012-5.3-4-10.951-7.9244-16.426-11.9l-13.273-9.5234c-3.075-2.125-6.2008-4.5498-9.3008-6.6758zm-0.05078 13.15-0.125 0.125-0.17383 15c0.125 1.625 1.425 3.0992 2.875 3.8242 5.45 2.651 11 5.0258 16.375 7.8008h0.25c-0.05-2.45 0.075-5.0998 0.125-7.6758v-13.324c-2.625-1.775-5.2008-3.7012-7.8008-5.5762l-11.52-0.175zm-6.1367 6.5488c-2.7439 0.07524-5.5723 0.90625-8.0879 1.25 1.8 0 3.3246-0.19883 5.0996-0.29883l0.125 0.125c0 0.1-0.12383 0.15061-0.17383 0.22461-1.675 0.3-3.275 0.72439-5 0.90039 1.65 0.175 3.6496 0.000219 5.3496-0.30078 0.075 0.101 0.225 0.17578 0.25 0.30078-1.775 0.5-3.6246 0.65061-5.3496 0.97461 1.6 0.1 3.6746 0.1 5.3496-0.25l0.22461 0.17578-0.17383 0.19922c-1.675 0.349-3.4754 0.44922-5.1504 0.82422 1.525 0.1 3.6492 0.12639 5.3242-0.22461l0.17578 0.17578c-0.175 0.175-0.42539 0.15061-0.65039 0.22461-1.375 0.325-2.925 0.34978-4.25 0.67578h3c0.7 0.15 1.5254-0.32617 2.0254 0.17383-1.625 0.35-3.5246 0.52539-5.2246 0.77539 1.35 0.325 2.9992 0.051 4.1992 0.125 0.4 0.026 0.85039-0.32422 1.1504 0.05078l-0.17578 0.19922c-1.9 0.349-3.6242 0.77539-5.5742 0.77539 0.075 0.125 0.22461 0.17461 0.34961 0.22461 4.1 0.45 8.225-0.925 12 0.5 0.05-2.151 0.175-4.5508 0.125-6.6758l-0.171-0.175c-1.5-0.76912-3.1154-0.99632-4.7617-0.95117zm49.361 0.784c-1.0939 0.05-2.1426 0.26953-3.0176 0.89453v6.5234c3.625-2.275 7.9252 0.67656 11.824-0.89844-1.625 0.2-3.25-0.30156-4.875-0.47656l-0.34961-0.22461c-0.025-0.1 0.075-0.12517 0.125-0.20117 1.425 0.301 2.899 0.22517 4.375 0.07617-1.3-0.151-2.5266-0.45078-3.8516-0.55078-0.125-0.05-0.32283-0.17461-0.29883-0.34961 1.425-0.15 2.7492 0.24883 4.1992 0.04883l-2.875-0.47461c-0.4-0.125-0.97322 0.02539-1.1992-0.34961l0.125-0.125c1.325-0.05 2.7492 0.375 3.9492-0.125-1.299-0.2-2.6254-0.30156-3.9004-0.60156l-0.34961-0.25c-0.075-0.151 0.10078-0.15061 0.17578-0.22461 1.475 0.075 2.6242 0.42361 4.1992 0.22461-1.425-0.325-2.925-0.5-4.25-1-0.049-0.125 0.04961-0.176 0.09961-0.25 1.551 0.25 3.301 0.525 4.875 0.25-1.55-0.125-3.05-0.44978-4.5-0.80078v-0.29883c0.651-0.101 1.1256 0.22422 1.7266 0.19922 1.35-0.125 2.35 0.22478 3.5-0.07422-2.175-0.176-4.2998-0.55026-6.4238-0.82226-1.0505-0.05-2.1893-0.16914-3.2832-0.11914zm-52.393 12.766c2.15 1.025 4.5254 1.475 6.5254 2.875-0.025 0.075 0.04922 0.2-0.05078 0.25-2.05-0.825-4.0008-1.7996-6.3008-1.9746 2 0.949 4.075 1.6992 6.125 2.5742l0.22656 0.22461-0.125 0.125c-2.225-0.425-4.2016-1.4986-6.4766-1.8496 2.05 0.951 4.175 1.8012 6.25 2.7012-0.025 0.075 0.05078 0.19961-0.07422 0.22461-2.025-0.451-3.9508-1.3256-5.9258-1.7246 1.925 1 3.875 1.8752 5.875 2.6992 0 0.051 0.02617 0.15078-0.04883 0.17578-1.925-0.351-3.8262-1.4008-5.7012-1.6758 1.85 0.8 3.65 1.6984 5.5 2.5234 0 0.075 0.05117 0.17656-0.04883 0.22656-1.8-0.4-3.6004-1.1-5.2754-1.5 2.45 1.225 5.15 1.8248 7.5 3.3008 6.425 4.1 12.35 9.699 20.525 9.25 6.85-0.826 12.799-3.9008 18.174-8.1758 2.55-2.074 5.85-2.425 8.625-4-0.85 0.151-1.6752 0.40061-2.5742 0.47461-1.151 0.025-2.1516 0.62539-3.2266 0.65039 1.6-1.174 4.0262-0.79939 5.5762-2.1504-1.5 0.35-3.2 0.25039-4.625 0.77539-0.475 0.025-0.95 0.45-1.375 0.25 1.775-0.949 3.8992-1.05 5.6992-2-0.475-0.074-1.05-0.074-1.5 0-1.5 0.176-2.95 0.62478-4.375 0.80078 0-0.15 0.15061-0.201 0.22461-0.25 0.925-0.301 1.8254-0.65156 2.7754-0.85156 0.925-0.375 1.9758-0.44944 2.9258-0.77344l-0.52539-0.125c-1.875 0.15-3.7234 0.37461-5.3984 0.97461l-0.125-0.125c1.85-0.85 3.925-1.25 5.875-1.75-0.975-0.051-2.1-0.176-3 0.125-1.05 0.05-1.9752 0.62383-2.9512 0.67383v-0.07422c2.101-0.875 4.3266-1.4246 6.6016-1.8496-0.651-0.176-1.3016 0.02483-1.9766 0.04883-4.45 0.174-7.9234 2.8264-11.398 5.2754-4.875 3.526-10.501 6.1508-16.852 5.1758-4.975-0.375-8.6746-3.9-12.725-6.375-3.7-2.75-7.9496-4.1504-12.35-5.1504z"/><path fill="#003876" d="m81.502 49.869c-0.14616 0.01641-0.28747 0.05117-0.41797 0.10742-0.651 0.2-0.65178 0.875-0.80078 1.375-0.75 0.225-0.94978 0.97617-1.4258 1.4512-1.349-0.8-2.6492 0.27383-4.0742 0.17383-0.7-0.8-0.801 0.75-1.5 0.25-0.051 4.025-0.176 7.8-0.125 11.875l5.4492 0.17578 0.25 0.25c0.551 0.175 1.4008 0.2 1.8008-0.25l2.8242 0.125c0.651-0.05 1.4516 0.1 1.9766-0.125 0-4 0.20078-7.6512 0.30078-11.701l-0.125-0.17383c-0.326 0.225-0.57756-0.15-0.72656-0.375-0.151 0.025-0.35078-0.05-0.42578 0.125-0.275 0.175-0.52461-0.000782-0.59961-0.30078 0.5-0.275 0.99922-0.575 1.1992-1.125 0.149-0.525 0.05039-1.0742-0.34961-1.4492-0.575-0.375-1.3496-0.30078-1.9746-0.05078-0.3375-0.28125-0.81739-0.40664-1.2559-0.35742zm-22.32 30.227c-0.09883-0.0046-0.19883-0.0018-0.29883 0.0039-0.15 0.101-0.37578 0.15078-0.42578 0.30078-0.25 0.324-0.05 0.77522 0.125 1.0742-0.825 0.676-2.05 0.52656-3 0.72656-0.35 0.576-1.0742 0.52556-1.6992 0.60156-0.475-0.077-0.97617-0.30156-1.2012-0.72656-0.075-0.15 0.00039-0.40078-0.22461-0.42578h-2.3496v0.125c0.35 0.3 0.69922 0.55156 1.0742 0.72656 2.675 0.125 4.3246 2.6508 6.7246 3.4258-0.35 0.775-1.2746 1.1498-2.0996 1.2988-0.8-0.275-0.62422 0.85017-1.0742 1.2012 2.475 0.225 6 0.1 9 0.125l0.04883-0.17578c-0.325-0.275-0.54844-0.62539-0.64844-1.0254-0.9-0.174-1.8262-0.27422-2.4512-1.0742-0.075-0.1-0.14922-0.34978 0.05078-0.42578 2.1-0.349 2.9246-3.1992 5.3496-2.5742 0.4 0.074 0.47578 0.52539 0.17578 0.77539-0.425 0.449-1.225-0.17617-1.375 0.54883-0.025 0.151 0.14961 0.12478 0.22461 0.17578 0.875-0.426 1.8992 0.15039 2.5742-0.72461 0.15-0.25 0.10117-0.52539-0.04883-0.77539-1.45-0.95-3.2758 0.09961-4.8008-0.65039-0.85-0.8-2.175-0.40061-3.125-0.97461-0.1-0.2 0.15-0.27578 0.25-0.42578 0.075-0.224 0.12578-0.57539-0.07422-0.77539-0.13125-0.2625-0.40469-0.34174-0.70117-0.35547z"/><path fill="#ffd520" d="m62.406 87.652v0.07422h0.30078v-0.07422h-0.30078zm-6.4746 0-0.17383 0.125 0.125 0.125-0.30078 0.17578 5.5742-0.05078-1.0234-0.07422v-0.05078c0.3-0.151 0.79844 0.05022 1.0234-0.17578l-5.2246-0.07422zm2.4512-1.5c-0.025 0.449-0.65156 0.42439-0.47656 0.90039-0.3 0.174-0.64844 0.24983-1.0234 0.29883 1.225 0.125 2.3238 0 3.5488 0.125l0.25-0.125c-0.6-0.174-1.35-0.09983-1.875-0.29883 0.35-0.25 0.87539-0.10156 1.2754-0.22656v-0.07422l-1.4492-0.125v-0.09961c0.45-0.25 1.2 0.074 1.5-0.375h-1.75zm8.3496-2.9258c0.05 0.225 0.125 0.65017 0 0.95117h0.25c0.225-0.101 0.34883-0.32756 0.29883-0.60156-0.175-0.175-0.34883-0.29961-0.54883-0.34961zm-7.8438-0.12695c-1.1438 0.0029-2.2941 0.01495-3.4316 0.002v0.17578c0.5 0 1.05-0.025 1.375 0.25-0.3 0.25-0.87539-0.02539-1.1504 0.22461 0.525 0.325 1.25 0.12478 1.875 0.17578l0.17578 0.19922-0.17578 0.17578c-0.325 0.025-0.84922-0.05117-1.1992 0.04883 0.575 0.702 1.3246 0.15156 2.0996 0.47656-0.225 0.3-0.75039 0.20078-1.0254 0.30078 0.25 0.426 0.97617-0.07422 1.0762 0.42578 0.475 0.149 1.0492 0.274 1.4492 0-0.375-0.051-0.70039 0.14922-0.90039-0.17578 0.55-0.175 1.1496-0.15 1.7246-0.25-0.425-0.151-1.0238 0.07422-1.4238-0.17578 0.25-0.45 0.84922-0.10178 1.3242-0.30078 0.275-0.176 0.87617 0.17522 0.95117-0.30078h-1.0762c-0.225-0.174-0.77539 0.17617-0.77539-0.29883 0.7-0.25 1.5262-0.25056 2.3262-0.22656v-0.125h-1.7246c-0.1-0.075-0.30078-0.075-0.30078-0.25 0.65-0.3 1.5242-0.17383 2.1992-0.29883-1.1125-0.0495-2.2488-0.05561-3.3926-0.05273zm-7.5059-1.0723c0.2 0.299 0.7 0.37539 1.125 0.40039-0.025-0.576-0.725-0.35139-1.125-0.40039zm7.7988-0.42578-0.90039 0.52539 0.17578 0.25-0.125 0.125c-0.125 0-0.27461 0.025-0.34961-0.125-0.025-0.05 0.02383-0.074 0.04883-0.125-0.7 0.375-1.8996-0.000219-2.3496 0.55078h6.6758l-0.17578-0.17578-3.25-0.07422-0.125-0.125c0.175-0.451 0.85039-0.10078 1.1504-0.30078-0.3-0.074-0.55039-0.27539-0.77539-0.52539zm0.05078-1.1504c-0.05 0.15-0.35-0.04922-0.25 0.17578-0.125 0.725 0.44883 0.1 0.67383 0.375v-0.30078c-0.1-0.175-0.27383-0.175-0.42383-0.25zm20.225-15.898-0.30078 0.25c0.1 0.1 0.10156 0.39883 0.35156 0.29883 0.075-0.225 0.02422-0.39883-0.05078-0.54883zm1.3281-0.41211c-0.2935 0.01367-0.57826 0.0668-0.85352 0.18555 0.151 0.1 0.24883 0.30156 0.42383 0.35156 1.45 0.225 3 0.075 4.375 0.125l-0.548-0.602c-0.174-0.075-0.45139 0.07578-0.65039 0.17578-0.91875 0.0375-1.8656-0.27734-2.7461-0.23633zm-3.234-0.174c-0.58138 0.03437-1.1698 0.14688-1.6953 0.23438-0.574 0.325-1.675-0.44922-1.75 0.42578 1.476 0.025 3.176 0.02461 4.625 0.09961 0.176-0.1 0.45156-0.30039 0.47656-0.52539-0.5-0.225-1.0749-0.26875-1.6562-0.23438zm-1.5703-3.0645-0.375 0.82422c0.276 0.1 0.40156-0.14961 0.60156-0.22461-0.075-0.2-0.07556-0.44961-0.22656-0.59961zm-1.8945-7.209c-0.08227 0.01641-0.12888 0.09531-0.20313 0.13281-0.175 3.525-0.175 7.1758-0.25 10.676 0.175-0.025 0.15-0.20078 0.25-0.30078 0.175-3.4 0.09883-7.125 0.29883-10.5-0.0375-0.0125-0.06828-0.01328-0.0957-0.0078zm10.695-0.117c0.05 3.55-0.30078 7.2008-0.17578 10.551l0.25 0.25c0.101-3.475 0.30156-7.15 0.22656-10.625l-0.301-0.176zm-6.623-0.68359c-1.2954-0.05674-2.3423 0.77227-3.6758 0.50977-0.199 3.375-0.12383 6.875-0.29883 10.25 0.15 0.275 0.54922 0.19883 0.82422 0.29883 1.299-0.25 2.7754-0.52461 4.1504-0.22461 0.15-1.325 0.19783-2.8004 0.17383-4.0254 0.175-0.575-0.17244-1.5496 0.35156-1.9746l0.125 0.09961c0.075 2.075-0.12578 4.1512-0.05078 6.0762 1.5-0.625 3.0268 0.47383 4.4258-0.07617 0.101-3.35 0.351-6.7988 0.25-10.299-0.525-0.15-0.42656 0.49922-0.72656 0.69922-0.351 0.3-0.825 0.20078-1.25 0.30078-0.026 0.275-0.19883 0.49961-0.29883 0.72461-0.4 0.225-0.80217 0.6-1.3262 0.375v0.40039c-0.651 0.375-0.94961 1.6254-1.8496 1.2754l-0.07422 0.72461c-0.9 0.5-2.1004 1.0246-2.5254 2.0996-0.2 0.575 0.10078 1.075 0.42578 1.5 0 0.2-0.25156 0.12461-0.35156 0.22461 0.125 0.675-0.62361 0.17461-0.84961 0.47461-0.3 0.15-0.34961 0.475-0.72461 0.5-0.1-0.15-0.10078-0.27383-0.05078-0.42383 1.274-3.15 2.7494-6.2258 3.8984-9.4258-0.19675-0.05-0.38721-0.07588-0.57227-0.08398zm3.7051-2.6211c-0.19412 0-0.39605 0.02969-0.56055 0.05469-0.724 0.25-0.42422 1.0262-0.82422 1.4512-1.05 0.25-1.3242 1.4504-1.6992 2.2754 0.325-0.325 0.54961-0.70117 0.72461-1.0762 0.201-0.125 0.34961-0.54961 0.59961-0.34961-0.899 1.475-1.7984 2.9758-2.5234 4.5508-0.225 0.575-0.82539 1.0988-0.77539 1.6738 0.226-0.25 0.62578-0.44922 0.55078-0.82422l0.30078 0.04883 0.04883-0.47461c0.175-0.075 0.225 0.17578 0.375 0.17578 0.1-0.225-0.24922-0.42461 0.05078-0.59961 0.276 0.025 0.17461 0.37383 0.34961 0.42383 0.075-0.25-0.17522-1.0746 0.42578-0.84961-0.026-0.125-0.22578-0.22461-0.05078-0.34961 0.25-0.05 0.37556 0.27461 0.60156 0.34961 0.024-0.025 0.05-0.07578 0.125-0.05078-0.05-0.225-0.15-0.44883-0.375-0.54883 0.1-0.725 0.49961 0.375 0.72461 0.125 0.15-0.15-0.149-0.29961-0.125-0.47461 0.175-0.175 0.32656 0.275 0.47656 0.125 0.074-0.45-0.72656-0.67656-0.35156-1.1016 0.075 0.025 0.2-0.04883 0.25 0.07617 0.55 0.2 1.3006 0.17422 1.7266-0.30078 0.099-0.425-0.42656-0.39883-0.60156-0.67383-0.125-0.05-0.37461 0.07422-0.47461-0.17578-0.05-0.1 0.05-0.17461 0.125-0.22461 0.325 0.175 0.79922 0.10039 1.0742 0.40039 0.5 0.2 0.94922-0.05156 1.3242-0.35156 0.275-0.45-0.25-0.72344-0.25-1.1484 0.075-0.175 0.27578-0.07656 0.42578-0.10156 0.375-0.125 0.75156-0.22461 0.85156-0.59961-0.175-0.425 0.39922-1.2254-0.42578-1.2754-0.325 0-0.79922-0.025-1.0742 0.25-0.2 0.15-0.525-0.12383-0.5-0.29883-0.138-0.1-0.32541-0.13086-0.51953-0.13086zm-16.506-1.669c-1 0.2-1.8508 1.0996-2.0508 2.0996 1.075-0.3 2.0754-0.99883 2.7754-1.9238v-0.125c-0.6 0.1-1.0242 0.79961-1.5742 0.84961l0.84961-0.90039zm1.9238-0.125c-1.225 0.4-1.3242 1.925-1.5742 2.875 1.175-0.425 2.1746-1.65 2.3496-2.875-0.6 0.175-0.64922 0.95-1.1992 1.25-0.1-0.425 0.39883-0.9 0.42383-1.25zm3.1758-0.29883c0.25 0.125 0.57561 0.29961 0.72461 0.59961 0.151 0.45 0.22678 0.95-0.07422 1.375-0.35-0.325-0.29961-0.925-0.47461-1.375-0.151-0.125-0.35156-0.40078-0.47656-0.30078 0.175 0.575 0.37578 1.1746 0.30078 1.8496 0.225 0.7 0.975 0.92656 1.625 0.97656-0.476-0.725-0.35178-1.7004-0.55078-2.5254-0.2-0.35-0.62422-0.62461-1.0742-0.59961zm-1.2754-0.05078c0.351 0.4 0.45 0.925 0.5 1.5-0.1 0.275-0.30078 0.59922-0.55078 0.69922-0.075-0.425 0.025-0.92383 0-1.4238-0.1-0.2-0.02678-0.57461-0.30078-0.59961-0.325 0.85-0.64883 2-0.17383 2.875 0.275 0.45 0.75022 0.69961 1.1992 0.84961-0.25-0.95 0.22578-1.7262 0.05078-2.7012-0.051-0.475-0.29961-0.99922-0.72461-1.1992zm2.8262-0.25c0.45 0.15 0.87539 0.39961 1.1504 0.84961 0.1 0.15 0.05 0.37461-0.125 0.47461-0.375-0.525-0.9-0.92344-1.375-1.0234 0.349 1.075 1.3744 1.9246 2.5234 1.9746-0.525-0.9-0.89983-2.2254-2.1738-2.2754zm4.0742-0.84961c-0.175-0.025-0.29939 0.04922-0.40039 0.19922 0 0.075-0.05117 0.17461 0.04883 0.22461 0.151-0.075 0.37556-0.22383 0.35156-0.42383zm-8.875-0.09961c-0.15 0.25-0.09922 0.52422 0.17578 0.69922 0.25 0.075 0.64961 0.14922 0.84961-0.05078-0.025-0.625-0.70039-0.37344-1.0254-0.64844zm3.5996-0.30078c-0.25 0.3-1.0764 0.30039-0.77539 0.90039h0.47656c0.225-0.25 0.44883-0.57539 0.29883-0.90039zm-8.8242-0.125c-0.3 0.05-0.39961 0.39961-0.59961 0.59961-0.225 0.225 0.24922 0.54961-0.17578 0.72461l-0.427-0.423c-0.075 0.275-0.12383 0.69922 0.07617 0.94922 0.425 0.9 1.4504 1.0004 2.2754 1.0254v-0.125c-0.425-0.1-0.82539-0.22461-1.1504-0.59961 0.05-0.175-0.32578-0.34961-0.05078-0.47461 0.125 0.075 0.24961 0.27383 0.34961 0.42383 0.525 0.15 1.1262 0.47578 1.7012 0.17578 0.3-0.125-0.25078-0.20078-0.30078-0.42578 0.15-0.4 0.55117 0.22617 0.95117 0.07617 0.075-0.175-0.12578-0.20078-0.17578-0.30078-0.5-0.025-0.85039-0.47461-1.1504-0.84961-0.325 0.35-0.17383 0.77539-0.29883 1.1504-0.1 0-0.20078-0.05117-0.30078-0.07617-0.65-0.4-0.84961-1.1496-0.72461-1.8496zm11.699-0.17578c-0.224 0.275-1.0012 0.32539-0.70117 0.90039-0.225 0.175-0.62383 0.10078-0.79883 0.30078l0.5 0.04883c0.476-0.55 0.97483 0.1 1.5488-0.125-0.199 0.4-0.82422 0.30078-1.0742 0.30078 0.574 0.225 0.949 0.85 1.125 1.375 0.524 0.025 1.0502 0.02539 1.4492-0.22461-0.399-0.275-1 0.15-1.375-0.25 0.351-0.6 1.3748-0.04961 1.9258-0.47461 0.324 0.325-0.35078 0.32383-0.42578 0.54883l0.30078 0.17578c0.299-0.15 0.62639-0.20078 0.90039-0.42578 0.424-0.425 0.62344-1.0488 0.52344-1.5488-0.1 0.175-0.29744 0.42461-0.52344 0.47461-0.149-0.1-0.175-0.25-0.25-0.375-0.25 0.6-0.875 0.79961-1.375 1.0996-0.349-0.05-0.95139 0.35-1.0254-0.125-0.175 0.175-0.54844 0.12578-0.77344 0.05078v-0.125c0.349 0 0.64922-0.32656 0.94922-0.22656v0.125h0.19922c0.425-0.05 0.37578-0.57461 0.30078-0.84961-0.525 0.1-1.1742 0.30078-1.6992 0.05078 0.125-0.225 0.49883-0.20039 0.42383-0.52539 0.025-0.1-0.024-0.20078-0.125-0.17578zm-4.5-0.375-0.52539 0.55078c-0.1 0.275-0.3 0.57422 0 0.82422-0.05-0.25 0.07656-0.47461 0.22656-0.59961 0.3 0.15-0.075 0.37578 0.125 0.55078 0.25-0.425 0.29883-0.80117 0.17383-1.3262zm4.2012-0.72461 0.07422 0.59961c0.175 0.05 0.22461-0.14961 0.34961-0.22461-0.125-0.125-0.24883-0.3-0.42383-0.375zm-2.2031-1.5c-0.6 0.625-0.47461 1.6246-1.0996 2.0996 0.625-0.125 0.52461-0.95 0.97461-1.25 0.3 0.65-0.22344 1 0.35156 1.5 0.324-0.425 0.37383 0.25078 0.67383 0.17578l0.05078 0.47461c0.326 0.000001 0.54961-0.37461 0.72461-0.59961 0.176-0.425-0.074-0.87422-0.25-1.1992-0.274 0.4-0.64922 0.72344-1.0742 0.89844-0.4-0.075-0.15-0.42461 0-0.59961 0.1-0.5 0.15044-1.2-0.35156-1.5zm1.2402-0.04102c-0.15612 0.03437-0.33711 0.12969-0.41211 0.11719l0.29883 0.89844c0.125-0.275 0.351-0.54844 0.375-0.77344 0.0245-0.25-0.10559-0.27656-0.26172-0.24219zm0.56055-0.25781c0 0.425 0.20156 0.74961 0.35156 1.0996 0.425 0.475 0.8 1.075 1.5 1 0.225-0.9-0.77539-1.1258-1.1504-1.8008v0.125c0.151 0.325 0.62578 0.67461 0.42578 0.97461-0.1-0.275-0.49961-0.22383-0.59961-0.54883-0.25-0.25-0.07634-0.82461-0.52734-0.84961zm-3.5664-0.33008c-0.60666-0.10781-1.2629 1.4301-1.3574 1.9551-0.2-0.15-0.42656-0.52656-0.72656-0.60156l-0.125 1.3262c-0.4-0.025-0.62422-0.42461-0.94922-0.34961-0.15 0.45-0.47578 1-0.17578 1.5-0.075 0.275-0.37461 0.22461-0.59961 0.22461-0.1-0.125-0.27383-0.19961-0.29883-0.34961-0.15-0.1-0.40078-0.32617-0.55078-0.07617 0.25 0.45-0.37539 1.7262 0.72461 1.3262 0.05-0.075 0.15-0.12656 0.125-0.22656l0.47461-0.07422c-0.025-0.175-0.22422-0.35039-0.07422-0.52539l0.30078 0.05078c0.15-0.2 0.12422-0.42461-0.05078-0.59961-0.075-0.25 0.125-0.27578 0.25-0.42578l-0.07422-0.05078c-0.025-0.2 0.02383-0.42461 0.17383-0.47461l0.42578 0.40039c0.3 0.2 0.60039 0.2 0.90039 0-0.1-0.05-0.10078-0.14961-0.17578-0.22461-0.1-0.3-0.07422-0.59961 0.05078-0.84961l0.67383 0.59961c0.1-0.275-0.22422-0.67617 0.05078-0.95117 0.125-0.05 0.175 0.05 0.25 0.125-0.05-0.2 0.075-0.325 0.125-0.5 0.225-0.025 0.19783 0.25 0.29883 0.375 0.1-0.2 0.02578-0.47461 0.05078-0.72461 0.075-0.075 0.075-0.24883 0.25-0.17383 0.35 0.175 0.20061 0.69844 0.22461 0.89844-0.024-0.175 0.05078-0.32383 0.17578-0.42383 0.1 0.025 0.199-0.05117 0.25 0.04883 0.024-0.175-0.02578-0.32461-0.05078-0.47461-0.1685-0.5-0.36419-0.71797-0.56641-0.75391zm-5.5566-0.07031c-0.55 0.475-1.175 1.1-1.875 1.375 0.225 0.2 0.1 0.54922 0.125 0.82422 0.35 0.15 0.67461-0.17539 0.97461-0.40039 0.425-0.5 0.975-1.0742 1.125-1.5742-0.25 0.225-0.42539 0.52578-0.77539 0.67578-0.225-0.4 0.47578-0.52539 0.42578-0.90039zm10.723-0.07617 0.30078 0.42578c0.175 0.25 0.62578 0.15078 0.55078 0.55078-0.575 0.2-0.90017-0.60078-1.3262-0.80078 0.025 0.225 0.051 0.42578 0.25 0.55078 0.525 0.5 1.3004 1.3234 2.1504 0.89844l-0.52539-0.84961c-0.549-0.075-0.92439-0.50039-1.4004-0.77539zm-11.323-0.897c-0.45 0.375-1.0508 0.59883-1.6758 0.67383-0.375 0.375-0.49961 0.875-0.59961 1.375 1.275 0.2 1.9488-0.84922 2.7988-1.5742 0-0.125 0.02617-0.24961-0.04883-0.34961-0.525 0.475-1.075 1.0484-1.75 1.0234 0.425-0.375 1.0254-0.57344 1.2754-1.1484zm12.223-0.125c0.125 0.35 0.60156 0.39883 0.72656 0.79883-0.05 0.025-0.10178 0.12461-0.17578 0.09961-0.301-0.125-0.74922-0.67383-0.94922-0.17383 0.474 0.6 1.2984 0.74883 1.8984 0.67383-0.199-0.65-0.774-1.3484-1.5-1.3984zm-15.049-0.65039c-0.125 0.275-0.54883 0.45039-0.54883 0.77539 0.7 0.275 1.3996 0.375 2.0996 0.25 0.35-0.15 0.92461-0.32656 0.97461-0.60156-0.525 0.1-1.1508 0.30078-1.6758 0.05078 0.375-0.15 0.72617-0.12578 1.0762-0.30078-0.7 0.075-1.2758-0.12383-1.9258-0.17383zm18.125-0.30078c-0.875 0.225-1.6754 0.37578-2.5254 0.30078 0.425 0.25 0.8 0.02383 1.25 0.17383v0.07617c-0.2 0.325-0.64922 0.09961-0.94922 0.09961 0.85 0.25 1.6246-0.10039 2.2246-0.65039zm0.52539-2.3496c-1.05 0.525-2.0506 1.225-3.1016 1.625 0.325 0.225 0.52539-0.15078 0.90039-0.05078 0.225 0.05 0.40061-0.37422 0.59961-0.07422-0.375 0.4-0.925 0.525-1.5 0.5v0.17578c0.5 0.125 1.025 0 1.5-0.125 0.826-0.35 1.6016-1.1758 1.6016-2.0508zm-16.777 1.9922c-0.68496-0.14236-1.3053-0.46264-1.9219-0.79297-0.325-0.25-0.62539-0.77344-1.1504-0.64844-0.05 0.325 0.075 0.59844 0.125 0.89844 0.725 1.15 2.2496 1.0504 3.4746 1.0254v-0.07422c-0.65-0.075-1.5508-0.000391-2.0508-0.52539l0.125-0.125c0.41971 0.18467 0.91174 0.22983 1.3984 0.24219zm0.33398 0.0039c-0.11065 0.0014-0.22091-0.001-0.33398-0.0039 0.09263 0.01925 0.18204 0.04668 0.27734 0.05859 0.01926-0.01926 0.03705-0.03703 0.05664-0.05469zm-3.3574-3.4961 0.07617 0.59961c0.175 1.3 1.5492 2.1504 2.6992 2.5254 0.175 0.15 0.50039-0.04922 0.65039 0.17578 0.03716 0.0929-0.01165 0.14421-0.06836 0.19531 0.1223-0.0015 0.25274 0.0082 0.36914 0.0039-0.35-0.2-0.25156-0.55078-0.47656-0.80078-0.6 0.075-1.0492-0.34922-1.4492-0.69922 0.05-0.125 0.175-0.04922 0.25-0.07422s0.20078 0.025 0.17578 0.125c0.45 0.025 0.72422 0.39961 1.1992 0.34961 0.1-0.4-0.45039-0.27461-0.65039-0.47461-1-0.45-1.6004-1.7258-2.7754-1.9258zm19.451-0.09961-0.25 0.04883c-0.649 0.85-1.4004 1.6258-2.4004 1.9258v0.125c0.349 0.05 0.65039-0.35 1.0254-0.375 0.051 0.75-1.0742 0.50039-1.1992 1.1504 0.424-0.175 0.84844-0.37578 1.2734-0.55078 0.9-0.45 1.5008-1.4742 1.5508-2.3242zm-4.627-2.2246c-0.35 0.25 0.15 0.47461-0.125 0.72461-0.675 0.2 0.02539 0.725-0.09961 1.25 0.9 0.275-0.07561 1.0492 0.65039 1.4492 0.149 0.3 0 0.67617-0.125 0.95117 0.675 0.725-0.74978 1.1238-0.30078 1.9238-0.549 0.225-0.40039 0.975-1.0254 1.125-0.425 0.05-0.37422 0.50078-0.69922 0.67578-0.25 0.075-0.62578 0.15-0.80078-0.125 0.05-0.575 0.60078 0.12539 0.80078-0.34961-0.2-0.725 0.64922-0.25156 0.82422-0.72656 0.2-0.175-0.12383-0.37383 0.07617-0.54883 0.175-0.025 0.44961 0.07422 0.47461-0.17578 0.026-0.475-0.22439-0.82422 0.34961-1.0742 0.2-0.35-0.09883-0.62461-0.29883-0.84961 0.151-0.2 0.44883-0.32656 0.42383-0.60156-0.025-0.225-0.29961-0.42344-0.47461-0.52344-0.05-0.125 0.05-0.175 0.125-0.25 0.15-0.25-0.000781-0.62539-0.30078-0.65039-0.226-0.2-0.15 0.07383-0.25 0.17383 0.15 0.025 0.32756 0.12578 0.35156 0.30078 0 0.2-0.25139 0.17578-0.40039 0.17578-0.151 0.825 0.07422 1.7992-0.42578 2.4492-0.199 0.05-0.54883 0.20039-0.67383-0.09961v1.0742c-0.275 0.175-0.30156-0.25-0.60156-0.25-0.1 0.4-0.32344 0.75039-0.39844 1.1504-0.4-0.05-0.47656-0.42578-0.85156-0.55078-0.401 0.175-0.14961 0.60039-0.47461 0.77539-0.2-0.225-0.39961-0.60039-0.72461-0.77539-0.4 0.175-0.15156 0.60039-0.47656 0.77539-0.35-0.1-0.14883-0.57539-0.42383-0.77539-0.25 0.175-0.52461 0.20156-0.72461 0.47656-0.3-0.125-0.12578-0.8-0.42578-1.125-0.225 0.05-0.40039 0.29961-0.65039 0.34961 0.2-0.8-1.0754-1.2496-0.77539-2.2246h-0.17383c-0.2 0.075-0.175-0.15156-0.25-0.22656 0.6-0.125 0.12383-0.77344 0.17383-1.1484h-0.125c-0.15 0.25 0.02617 0.52461 0.20117 0.72461-0.3 0.1-0.55078 0.35039-0.42578 0.65039 0.1 0.1 0.27578 0.075 0.30078 0.25-0.375 0.2-0.42578 0.62422-0.30078 0.94922 0.15 0.025 0.35078-0.05 0.42578 0.125-0.025 0.075 0.04883 0.2-0.07617 0.25-0.075 0.175-0.12383 0.50039 0.07617 0.65039 0.15 0.075 0.19961-0.10078 0.34961-0.05078 0.4 0.15 0 0.44961 0.125 0.72461 0.1 0.375 0.42539 0.02578 0.65039 0.05078 0.2 0.2 0.12383 0.52461 0.29883 0.72461 0.25 0.125 0.30078-0.225 0.55078-0.125 0.025 0.05 0.15 0.10078 0.125 0.17578-0.125 0.375-0.52461 0.29883-0.84961 0.29883-0.45-0.125-0.20039-0.82344-0.77539-0.64844-0.425-0.175-0.25078-0.67656-0.55078-0.85156-0.975-0.1 0.07656-1.0492-0.77344-1.3242-0.15-0.3-0.0012-0.62539 0.17383-0.90039-0.15-0.175-0.19883-0.40039-0.17383-0.65039 0.5-0.375-0.0016-1.1992 0.64844-1.4492-0.05-0.575-0.04961-1.1746-0.47461-1.5996-0.15 0.075-0.37461 0.02461-0.47461 0.22461-0.15 0.275 0 0.55039 0.125 0.77539-0.225 0.175-0.50078 0.14883-0.67578 0.42383-0.125 0.225 0 0.47578 0.125 0.67578 0.075 0.3-0.27383 0.29961-0.42383 0.47461-0.15 0.325 0.02383 0.62617 0.29883 0.82617 0.025 0.275-0.27344 0.27383-0.39844 0.42383-0.15 0.275-0.275 0.60039-0.125 0.90039 0.625 0.225 0 0.67422 0.125 1.0742 0 0.45 0.54844 0.57578 0.89844 0.42578 0.175 0.275-0.09922 0.82422 0.30078 1.0742 0.275 0.05 0.47422-0.07461 0.69922-0.09961 0.25 0.15 0.05117 0.27461 0.20117 0.47461 0.175 0.675 0.775 0.17578 1.125 0.42578 0.05 0.1-0.05 0.14961-0.125 0.22461-0.325 0.225-0.825 0.1-1.125-0.125l-0.47461 0.80078c-0.625-0.3 0.29883-0.77539 0.17383-1.2754h-0.29883c-0.45 0.8-1.1766 1.6004-0.97656 2.5254 0.875-0.1 1.575-1.0008 1.875-1.6758 0.2 0.125 0.22578 0.35039 0.30078 0.52539 0.3-0.2 0.50039 0.10078 0.65039 0.30078-0.075-0.6 0.34961-1.1266 0.72461-1.6016 0.75-0.25 0.02578 0.57617 0.42578 0.82617 0.275-0.9 1.0738-1.3996 1.5488-2.2246 0.151-0.05 0.20078 0.1 0.30078 0.125 0.125 0.4 0.47461 0.67344 0.72461 1.0234 0.175 0.125 0.12656 0.47656 0.35156 0.47656 0-0.425 0.29883-0.70039 0.54883-1.0254 0.401 0.15 0.17656 0.74961 0.60156 0.97461 0.349-0.125 0.59844-0.27578 0.64844-0.67578 0.25-0.1 0.301 0.22617 0.5 0.20117 0.3 0.1 0.70039 0.1 0.90039-0.25-0.25-0.75 0.62422-0.32539 0.82422-0.77539 0.25-0.225 0.075-0.55039 0-0.77539 0.075-0.075 0.125-0.175 0.25-0.125 0.675-0.275-0.02344-0.90039 0.35156-1.2754 0.075-0.275 0.42422-0.74922-0.05078-0.94922-0.025-0.2 0.02678-0.34961 0.17578-0.47461 0.05-0.225-0.05-0.42461-0.125-0.59961-0.799-0.15 0.09961-1.0762-0.52539-1.4512-0.95-0.25 0.10022-1.2238-0.67578-1.5488zm4.625-0.17578-0.34961 0.22461c-0.65 1.05-1.5754 2.075-2.5254 2.875l0.125 0.125c0.551-0.325 0.95-0.875 1.375-1.25 0.101-0.05 0.17656 0.05 0.22656 0.125 0 0.15-0.20078 0.14961-0.30078 0.22461-0.2 0.575-0.801 0.90039-1.25 1.2754 0 0.05-0.02422 0.12578 0.05078 0.17578 0.125-0.075 0.225-0.15 0.375-0.125 1.475-0.775 2.0494-2.2504 2.2734-3.6504zm-19.373-0.125 0.17383 1.1992c0.675 1.375 1.8508 3.1766 3.5508 3.2266-0.775-0.5-1.7246-0.87656-2.2246-1.6016 0.125-0.125 0.27383 0.000781 0.42383 0.05078-0.8-0.85-0.79883-2.275-1.9238-2.875zm0.77539-1.875v0.90039c0.525 1.525 0.97422 3.2492 2.4492 4.1992l-0.90039-1.0742c0.025-0.075-0.04883-0.19961 0.07617-0.22461 0.5 0.275 0.77422 0.925 1.3242 1.25l0.09961-0.125c-1.425-1.275-2.3238-3.1258-2.9238-4.9258h-0.125zm18.598-0.82422c-0.85 1.15-1.3746 2.4234-2.3496 3.5234-0.15 0.55-1.2994 0.77617-0.77539 1.3262l0.47656-0.42578c0.3-0.25 0.42578-0.69922 0.80078-0.82422 0.099 0.425-0.35156 0.775-0.60156 1.125-0.151 0.4-0.77461 0.27383-0.59961 0.79883l0.34961-0.19922c1.375-1.55 3.0992-3.1242 2.8242-5.3242h-0.125zm-17.049-0.476c-0.05 1.725 0.90078 3.2 2.0508 4.5h0.125c0.075-0.65-0.97461-1.0492-0.84961-1.6992 0.6 0.25 0.9 1.4246 1.625 1.0996-0.85-1.4-2.3262-2.4504-2.9512-3.9004zm-1.1992-0.07422c-0.1 1.975 1.0738 3.3996 1.9238 4.9746 0.3 0.325 0.62539 0.79961 1.0254 0.72461-0.075-0.25-0.29961-0.32344-0.47461-0.52344-0.275-0.7-1.2004-1.3008-1.2754-2.0508 0.925 0.525 1.0258 1.8004 2.0508 2.1504 0.05-0.075 0.17383-0.12461 0.17383-0.22461-0.025-0.175-0.19961-0.20078-0.34961-0.17578-1.1-1.225-1.9996-2.7504-2.3496-4.4004-0.2-0.125-0.39961-0.47461-0.72461-0.47461zm6.3047 9.2539c-0.000292 0.03659-0.0059 0.08947-0.0059 0.12109l0.07617-0.07422-0.07031-0.04687zm0.02148-0.36719c-0.05122 0.10605-0.08082 0.22067-0.02734 0.36328l0.0059 0.0039c0.000889-0.11102 0.007-0.23217 0.02148-0.36719zm0.51172-9.123c-0.11836 0.01445-0.23164 0.0668-0.33789 0.18555-0.225 0.25-0.25078 0.57539-0.30078 0.90039 0.175 0.025 0.32461-0.02422 0.47461-0.07422 1.15 0.125 1.1758 1.5496 1.6758 2.3496 0.025 0.3 0.47578 0.39961 0.42578 0.72461-0.1 0.025-0.17578 0.175-0.30078 0.125-0.45-0.65-1.1758-0.92539-1.8008-1.2754 0.05 0.7 0.75 1.1 1.25 1.5-0.15 0.425-0.725 0.52656-1.125 0.72656-0.025 0.3 0.20039 0.37383 0.40039 0.54883-0.25 0.175-0.35039 0.62539-0.77539 0.52539 0.075 0.35 0.47656 0.17461 0.60156 0.47461 0.1 0.35-0.40156 0.39961-0.60156 0.59961-0.025 0.35 0.37578 0.40156 0.55078 0.60156 0.075 0.325-0.30078 0.29883-0.42578 0.54883-0.1437 0.17244-0.19668 0.41943-0.22266 0.66211 0.09244-0.19141 0.28583-0.34154 0.39844-0.48633 0.125 0.3-0.19961 0.54961-0.22461 0.84961 0.325-0.05 0.37539-0.42461 0.65039-0.59961 0.5 0.325-0.45078 0.65-0.05078 1.125 0.1-0.175 0.10078-0.45039 0.30078-0.52539 0.15 0.275-0.07617 0.67422-0.07617 0.82422 0.425-0.275 0.30078-0.77422 0.67578-1.0742 0.625 0.225-0.30117 0.77422 0.17383 1.1992 0.625-0.175 0.35156-0.87422 0.60156-1.1992 0.625 0.025 0.07561 0.59961 0.22461 0.97461 0.075 0.15 0.10078 0.34961 0.30078 0.34961 0.55-0.325 0.19783-0.87422 0.29883-1.3242 0.525 0.175 0.47656 0.79922 0.72656 1.1992 0.125 0.05 0.175-0.05 0.25-0.125 0.2-0.475-0.07578-0.92383-0.30078-1.2988 0.55-0.35 0.47322 0.74961 1.0742 0.59961 0.05-0.35-0.05-0.64961-0.125-0.97461-1.575-0.25 0.42578-0.65 0.17578-1.25-0.375-0.125-0.77422 0.225-0.94922-0.25 0.299-0.15 0.64844-0.19961 0.89844-0.47461-0.05-0.525-0.92422 0.04844-1.0742-0.47656 0.125-0.1 0.32561-0.05 0.47461-0.125 0.125-0.05 0.32478-0.17461 0.30078-0.34961-0.151-0.1-0.37361-0.05-0.47461-0.25 0.1-0.4 0.62344-0.29961 0.64844-0.72461h-0.29883c-0.825-0.65 0.59883-0.49922 0.67383-1.0742l-0.425-0.427c0.2-0.225 0.54961-0.27461 0.59961-0.59961-0.275 0.075-0.67439 0.14922-0.90039-0.05078 0.375-0.2 0.801-0.65039 1.125-0.90039 0.075-0.425-0.42461-0.19883-0.59961-0.42383-1.15 0.05-1.85-0.975-2.875-1.25-0.1 0.175-0.52578 0.07539-0.42578 0.40039h0.30078c0.5 0.575 0.65 1.4742 1.5 1.5742 0.326 0.025 0.59961-0.35 0.84961-0.125-0.199 0.525-0.8 0.52539-1.25 0.65039 0.125 0.225 0.52539 0.075 0.52539 0.375-0.05 0.1-0.20078 0.02383-0.30078 0.04883 0.024 0.125 0.22517 0.25 0.07617 0.375h-0.20117c0 0.05 0.02517 0.12578-0.04883 0.17578-0.151 0.025-0.27578-0.05078-0.30078-0.17578 0 0.15 0.275 0.35156 0 0.47656-0.074 0.025-0.12578-0.075-0.17578-0.125-0.075-0.2-0.325-0.50156 0-0.60156-0.125-0.075-0.04922-0.19883-0.07422-0.29883-0.875-0.45-0.70078-1.4758-1.3008-2.0508-0.075-0.275 0.24961-0.25039 0.22461-0.52539-0.3375 0.075-0.73086-0.22891-1.0859-0.18555zm10.338-0.28906-0.47656 0.47461c-0.549 1.3-1.4994 2.5016-2.3984 3.6016v0.34961c0.375-0.05 0.42344-0.52539 0.77344-0.65039 0.3 0.6-0.89883 0.825-0.67383 1.5 1.349-1.375 3.0984-3.1504 2.7754-5.2754zm-0.97656-0.59961c-0.525 0.95-1.0776 1.9-1.6016 2.875 0.225-0.225 0.27656-0.57461 0.60156-0.72461l0.04883 0.04883c-0.449 0.75-0.69922 1.5766-1.3242 2.2266l0.07422 0.07422c0.676-0.6 1.0766-1.5246 1.7266-2.2246 0.399-0.75 0.85061-1.5004 0.47461-2.2754z"/><path fill="#003876" d="m75.855 31.928 0.05078 0.17383c0.074-0.05 0.07422-0.12383 0.07422-0.17383h-0.125zm-13.199 1.7988 0.17578 0.34961c0.025-0.025 0.075-0.07383 0.125-0.04883v-0.20117c-0.075-0.1-0.17578-0.12461-0.30078-0.09961zm13.426 0.05078c-0.05 0.2-0.42578 0.37461-0.30078 0.59961h0.07422c0.076-0.2 0.42656-0.39961 0.22656-0.59961zm1.5 0.42383v0.125h0.125v-0.125h-0.125zm-0.10156 0.42578c-0.099-0.025-0.19922-0.000391-0.19922 0.09961h0.19922v-0.09961zm-0.38867 0.39258c-0.08555 0.01992-0.14688 0.11328-0.10938 0.20703h0.19922v-0.19922c-0.03125-0.0125-0.06133-0.01445-0.08984-0.0078zm-15.76 0.73242v0.17578h0.125v-0.10156c-0.05-0.05-0.075-0.09922-0.125-0.07422zm8.2246 0.125c-0.25 0.175-0.02578 0.52461-0.17578 0.72461-0.175 0.525 0.1 1.2258-0.25 1.6758-0.075 0.025-0.12578-0.075-0.17578-0.125 0-0.6 0.25-1.1496 0.125-1.7246h-0.07422c-0.125 0.275-0.25 0.62422-0.125 0.94922-0.05 0.7-0.29961 1.3246-0.47461 1.9746 0.15 0.075 0.125 0.225 0.125 0.375 0.275 0.1 0.24883-0.27383 0.42383-0.29883 0.25 0.1 0 0.34961 0.125 0.47461 0.225-0.05 0.20078-0.32461 0.30078-0.47461 0.276 0.05 0.17578 0.34844 0.30078 0.52344 0.026-0.025 0.04861-0.07383 0.09961-0.04883 0.125-1.05 0.149-2.3508 0.125-3.4258-0.226 0.425-0.075 1.075-0.125 1.5-0.075 0.15-0.05078 0.49961-0.30078 0.34961 0.026-0.8 0.22717-1.7492 0.07617-2.4492zm-4.875 0.05078c-0.1 0.075-0.17383 0.22383-0.04883 0.29883 0.125 0.025 0.29883-0.02383 0.29883-0.17383l-0.25-0.125zm13.025 0.375-0.125 0.125 0.07422 0.04883c0.05 0.025 0.074-0.02383 0.125-0.04883 0-0.075-0.05022-0.1-0.07422-0.125zm-9.125 0.22461c-0.25 0.45-0.19961 1.1492-0.34961 1.6992-0.275 0.225-0.20078 0.62617-0.30078 0.95117 0.15 0.125-0.04922 0.44961 0.17578 0.47461 0.25-1 0.49961-2.075 0.47461-3.125zm5.9707 0.08594c-0.12539-0.04805-0.29023 0.08164-0.27148 0.21289 0.074 0.15 0.225 0.125 0.375 0.125v-0.22461c-0.025-0.0625-0.06172-0.09727-0.10352-0.11328zm-4.2207 0.03906c-0.175 0.925-0.15 1.925-0.25 2.875 0.175 0.1 0.02578 0.425 0.30078 0.375 0.025-1.075-0.05078-2.125 0.07422-3.25h-0.125zm-6.0508 0.31445c-0.1207-0.04102-0.28008 0.10312-0.29883 0.23438l0.09961 0.125c0.225 0.05 0.30078-0.075 0.30078-0.25-0.025-0.0625-0.06133-0.0957-0.10156-0.10938zm20.801 0.23438v0.22656l0.42578 0.07422v-0.17578c-0.125-0.075-0.25078-0.175-0.42578-0.125zm-31.725 0.05078c-0.1 0.125-0.37578 0-0.30078 0.25 0.1 0.1 0.27578 0.02578 0.42578 0.05078 0.05-0.075 0.24883-0.07656 0.17383-0.22656-0.075-0.125-0.19883-0.04922-0.29883-0.07422zm18.023 0.30469c-0.10523-0.01641-0.21839 0.10234-0.27539 0.12109 0.125 0.15 0.301-0.05078 0.375-0.05078-0.03125-0.04375-0.06453-0.06484-0.09961-0.07031zm-17.482 0.36328c-0.07813 0-0.16719 0.02031-0.24219 0.0078-0.1 0.075-0.325 0.07383-0.25 0.29883 0.225-0.075 0.60078 0.15078 0.67578-0.19922-0.0375-0.0875-0.10547-0.10742-0.18359-0.10742zm30.957 0.0078-0.07422 0.22461 0.67578 0.125v-0.17578c-0.175-0.15-0.37556-0.22383-0.60156-0.17383zm-9.9707 0.04687c-0.04527 0.01719-0.08502 0.07148-0.10352 0.17774 0.05 0.175 0.10078 0.19883 0.30078 0.17383 0.13125-0.13125-0.06147-0.40312-0.19726-0.35156zm-10.924 0.24024c-0.03125-0.0043-0.06602-0.000782-0.10352 0.01172-0.125 0.075-0.05117 0.22578 0.04883 0.30078 0.125 0.025 0.175-0.075 0.25-0.125-0.0375-0.09375-0.10156-0.17461-0.19531-0.1875zm9.7773 0.18359c-0.03125-0.0031-0.06797 0.0039-0.10547 0.0039-0.15 0.075-0.15 0.22383 0 0.29883 0.125-0.05 0.22383-0.075 0.17383-0.25-0.0125-0.0375-0.03711-0.04961-0.06836-0.05273zm-13.48 0.05273c-0.025 0.1 0.025 0.20078 0.125 0.17578 0.075-0.025 0.04883-0.10078 0.04883-0.17578h-0.17383zm-6.0547 0.0625c-0.08438 0-0.17109 0.01367-0.24609 0.01367v0.29883h0.30078c0.05-0.075 0.24883-0.1 0.17383-0.25-0.0625-0.05-0.14414-0.0625-0.22852-0.0625zm23.188 0.0098c-0.03437-0.0031-0.07237 0.0039-0.10938 0.0039v0.17383h0.125c0.024-0.05 0.07422-0.075 0.07422-0.125-0.0245-0.0375-0.05547-0.04961-0.08984-0.05273zm-5.8086 0.10352c-0.15 0.075-0.32556 0.025-0.47656 0.125 0.051 0.125 0.176 0.04922 0.25 0.07422 0.051-0.125 0.25056 0.000781 0.22656-0.19922zm13.025 0-0.05078 0.19922c0.15 0.125 0.35039 0.25156 0.52539 0.10156 0.024-0.275-0.29961-0.20078-0.47461-0.30078zm-23.98 0.08789c-0.03242 0.01484-0.05781 0.04883-0.07031 0.11133 0.1 0.075 0.17578 0.20156 0.30078 0.22656 0.025-0.05 0.15-0.10078 0.125-0.17578-0.09375-0.075-0.2582-0.20664-0.35547-0.16211zm23.68 0.51172c-0.125 0.075 0.0012 0.2 0.07617 0.25 0.099 0.075 0.39844 0.15117 0.39844-0.04883-0.025-0.275-0.30061-0.17617-0.47461-0.20117zm-9.3398 0.07227c-0.04687 0.0031-0.09727 0.01641-0.13477 0.0039v0.29883h0.17578c0.125-0.05 0.04922-0.175 0.07422-0.25-0.025-0.05-0.06836-0.05586-0.11523-0.05273zm-20.268 0.065c-0.1793-0.02695-0.39062 0.04687-0.39062 0.23437 0.1 0.1 0.25 0.02578 0.375 0.05078 0.05-0.075 0.25078-0.07461 0.17578-0.22461-0.04375-0.03125-0.10039-0.05156-0.16016-0.06055zm18.885 0.16016v0.29883h0.17578c0.1-0.05 0.125-0.17383 0.125-0.29883h-0.30078zm-8.0312 0.13281c-0.11367-0.01055-0.23086 0.12969-0.19336 0.24219 0.05 0.1 0.14961 0.02383 0.22461 0.04883 0.125-0.05 0.04922-0.14961 0.07422-0.22461-0.03125-0.04375-0.06758-0.06289-0.10547-0.06641zm-1.8691 0.11719v0.34961h0.17578c0.1-0.025 0.02383-0.14961 0.04883-0.22461 0.025-0.15-0.14961-0.125-0.22461-0.125zm7.5996 0 0.375 0.59961 0.05078-0.05078c-0.075-0.225-0.17578-0.44883-0.42578-0.54883zm6.375 0.04883v0.125h0.125v-0.125h-0.125zm6.4258 0.125c-0.125 0.075-0.15 0.1-0.125 0.25 0.099 0.225 0.34844 0.075 0.52344 0.125v-0.19922c-0.074-0.175-0.27344-0.10078-0.39844-0.17578zm-29.072 0.13867c-0.1582-0.04453-0.34062 0.08711-0.45312 0.16211-0.025 0.1 0.075 0.12578 0.125 0.17578 0.15-0.075 0.39961-0.05156 0.47461-0.22656-0.04375-0.0625-0.09375-0.09648-0.14648-0.11133zm15.623 0.28711c0.151 0.25 0.12383 0.64961 0.29883 0.84961 0-0.325-0.07483-0.67461-0.29883-0.84961zm-1.8008 0.05078c-0.15 0.25-0.2 0.64961-0.125 0.84961 0.05-0.275 0.175-0.59961 0.125-0.84961zm5.6992 0c-0.075 0.225 0.07478 0.37383 0.30078 0.29883v-0.17383c0.024-0.175-0.20078-0.1-0.30078-0.125zm-8.75 0.19922c-0.125 0.05-0.15 0.09961-0.125 0.22461-0.025 0.2 0.20078 0.1 0.30078 0.125v-0.17383c0.05-0.125-0.07578-0.22578-0.17578-0.17578zm3.9004 0 0.04883 0.52539 0.05078-0.05078c0.05-0.2-0.04961-0.37461-0.09961-0.47461zm3.6348 0.04687c-0.05312 0.0031-0.11016 0.01641-0.16016 0.0039 0 0.125-0.02422 0.37383 0.17578 0.29883 0.075-0.075 0.149-0.125 0.125-0.25-0.0375-0.05-0.0875-0.05586-0.14062-0.05273zm-9.411 0.428c-0.125 0.1-0.02383 0.32461 0.07617 0.34961 0.1-0.05 0.22383-0.04961 0.17383-0.22461-0.075-0.075-0.125-0.175-0.25-0.125zm8.6992 0.22461v0.375h0.17578c0.125-0.05 0.05022-0.175 0.07422-0.25-0.074-0.05-0.125-0.15-0.25-0.125zm-6.3477 0.07617v0.29883h0.125c0.025-0.075 0.12461-0.09883 0.09961-0.17383-0.05-0.075-0.12461-0.175-0.22461-0.125zm7.8926 0.12695c-0.1125 0.03437-0.20575 0.14688-0.09375 0.29688 0.076 0.05 0.12361 0.15156 0.22461 0.10156 0.125-0.025 0.05022-0.15156 0.07422-0.22656 0.038-0.1625-0.09258-0.20625-0.20508-0.17188zm-2.209 0.46875c-0.05312 0.0031-0.11016 0.01641-0.16016 0.0039v0.17578c0.05 0.075 0.12656 0.15 0.22656 0.125 0.125-0.05 0.04922-0.175 0.07422-0.25-0.0375-0.05-0.0875-0.05781-0.14062-0.05469zm-4.873 0.04883c-0.08203 0.02461-0.14336 0.12344-0.16211 0.17969 0.075 0.075 0.075 0.25117 0.25 0.20117v-0.375c-0.03125-0.0125-0.06055-0.01406-0.08789-0.0059zm-2.2207 0.04883c-0.10938 0-0.20352 0.05703-0.16602 0.20703 0.05 0.125 0.15078 0.22383 0.30078 0.17383 0.1-0.075 0.1-0.15 0.125-0.25-0.025-0.075-0.15039-0.13086-0.25977-0.13086zm8.5664 0.26758c-0.12094-0.04687-0.29606 0.08828-0.25781 0.23828 0.074 0.1 0.17578 0.125 0.30078 0.125 0.1-0.05 0.02578-0.175 0.05078-0.25-0.01875-0.0625-0.05344-0.09766-0.09375-0.11328zm-7.3887 0.71094c-0.04375 0.0031-0.09258 0.01445-0.14258 0.002v0.30078h0.19922c0.1-0.05 0.02578-0.15 0.05078-0.25-0.025-0.05-0.06367-0.05586-0.10742-0.05273zm9.5312 0.85352v0.17383h0.05078c0.025-0.05 0.07422-0.075 0.07422-0.125-0.076 0.025-0.1-0.02383-0.125-0.04883zm-11.045 0.76367c-0.07852-0.01523-0.16641 0.0918-0.12891 0.18555h0.125c0.025-0.025 0.07422-0.075 0.07422-0.125-0.01875-0.0375-0.04414-0.05547-0.07031-0.06055zm0.8457 2.5352v0.47461h0.125c-0.1-0.15-0.025-0.39961-0.125-0.47461zm11.525 0.52539-0.375 0.30078 0.07422 0.07422c0.125-0.025 0.27461 0.025 0.34961-0.125-0.025-0.075 0.05017-0.2-0.04883-0.25zm-3.6758 1.5742c0.024 0.15 0.1 0.30039 0.25 0.40039 0.076 0 0.24961 0.05117 0.22461-0.04883-0.076-0.2-0.27461-0.30156-0.47461-0.35156zm-8.875 0.47656c-0.275-0.05-0.67461 0.32461-0.59961 0.34961 0.225-0.05 0.52461-0.07461 0.59961-0.34961zm2.2246 0.47461c-0.275 0.025-0.39883 0.29883-0.42383 0.54883 0.175-0.125 0.44883-0.29883 0.42383-0.54883zm4.6738 0.125c-0.074 0.175-0.05 0.29883 0.125 0.42383 0.051 0 0.15078 0.000781 0.17578-0.07422l-0.30078-0.34961zm11.117 0.25586c-0.05938 0.0125-0.11562 0.05625-0.14062 0.09375l0.07422 0.07422c0.075-0.025 0.17656 0.05078 0.22656-0.07422-0.0375-0.0875-0.10078-0.10625-0.16016-0.09375zm-13.166 0.16797c0 0.2 0.02617 0.45039 0.20117 0.52539l0.04883-0.04883c-0.076-0.175-0.076-0.42656-0.25-0.47656zm11.9 0.90039c-0.15 0.1-0.47678 0.000782-0.42578 0.30078h0.22656c0.075-0.1 0.24922-0.15078 0.19922-0.30078zm-3.8516 2.0996c-0.25-0.05-0.44844 0.07656-0.64844 0.10156 0.174 0.05 0.54844-0.05156 0.64844-0.10156zm-0.89844 0.17578c-0.125-0.025-0.20078 0.02578-0.30078 0.05078 0.1-0.025 0.30078 0.04922 0.30078-0.05078zm-0.5957 0.02539c-0.12853 0.0012-0.27894 0.06289-0.42969 0.02539h0.54883c-0.03725-0.01875-0.0763-0.02578-0.11914-0.02539zm1.4434 0.45508c-0.06173-0.01641-0.14105 0.04414-0.12305 0.11914h0.17383v-0.07422c-0.01225-0.025-0.0302-0.03945-0.05078-0.04492zm-0.37305 0.11914c-0.576 0.025-1.2016 0.175-1.7246 0.125 0.274 0.4 0.67617-0.02539 1.0762 0.09961 0.224-0.075 0.52344-0.04961 0.64844-0.22461zm6.4844 0.11914c-0.08463 0.0125-0.14688 0.04414-0.10938 0.05664 0.101 0.025 0.22461 0.22383 0.34961 0.04883v-0.04883c-0.05-0.0625-0.15561-0.06914-0.24023-0.05664zm-6.3105 0.70703c-0.524 0.05-1.1478 0.175-1.7988 0.125 0.575 0.425 1.2988 0.025 1.7988-0.125zm5.7012 0c0.2 0.225 0.52483 0.1 0.79883 0.125v-0.125c-0.199 0.025-0.77283-0.025-0.79883 0zm-0.36524 0.65625c-0.11655-0.009-0.22944-0.0074-0.33594 0.01758 0.45 0.15 1.1248 0.375 1.5508 0.125l-0.125-0.125c-0.35625 0.13125-0.7402 0.0094-1.0898-0.01758zm-7.0098 0.14258v0.17578c0.44108-0.04633 0.87904 0.0841 1.2793-0.13281l-1.2793-0.04297zm1.2793 0.04297 0.2207 0.0078c-0.05 0.025-0.075-0.02578-0.125-0.05078-0.03117 0.02201-0.06402 0.0258-0.0957 0.04297zm4.9707 0.35742-0.07617 0.07422c0.601 0.075 1.101 0.32656 1.75 0.22656 0.075-0.125 0.32478 0.04922 0.30078-0.17578-0.625 0.05-1.3236-0.075-1.9746-0.125zm-5.0996 0.30078c-0.425 0-0.87539-0.000781-1.2754 0.07422v0.05078c0.424 0.15 0.87539 0.025 1.2754-0.125zm4.7246 0.29883c0.675 0.2 1.4488 0.40078 2.2988 0.30078v-0.09961c-0.674-0.125-1.5728-0.0012-2.2988-0.20117zm-4.9746 0.42578c-0.25 0.125-0.60039 0.04922-0.90039 0.07422v0.09961c0.35 0.075 0.65039-0.12383 0.90039-0.04883v-0.125zm5.2734 0.42383c0.575 0.15 1.3248 0.20078 1.8008 0.17578v-0.125l-1.8008-0.05078zm-5.75 0.30078c-0.125 0-0.29861 0.05-0.34961 0.125 0.125 0 0.22461-0.075 0.34961-0.125zm5.7812 0.46289c-0.22219-0.01758-0.44844-0.01953-0.67969 0.01172v0.125h0.17578c0.775-0.05 1.6484 0.325 2.3984 0.125v-0.125c-0.60075 0.1125-1.228-0.08398-1.8945-0.13672zm-3.1484 0.13086c-0.14362 0-0.29375 0.03164-0.40625 0.05664 0.25 0.025 0.57444 0.22422 0.77344 0.07422-0.087-0.1-0.22356-0.13086-0.36719-0.13086zm-2.7344 0.06836c-0.10758-0.01875-0.22776 0.07578-0.32226 0.11328l0.07422 0.07422c0.125-0.025 0.27561 0.025 0.34961-0.125-0.03125-0.0375-0.0657-0.05625-0.10156-0.0625zm2.4688 0.53125c-0.15925 0-0.31445 0.01914-0.43945 0.05664l0.89844 0.125v-0.125c-0.137-0.0375-0.29974-0.05664-0.45898-0.05664zm3.084 0.0059c0.651 0.175 1.4496 0.425 2.2246 0.25v-0.125c-0.775 0.05-1.3986-0.075-2.2246-0.125zm-3.0488 0.65039c-0.349 0.1-0.77539 0.075-1.0254 0.25 0.5 0.1 1.1242-0.175 1.5742 0-0.1-0.175-0.37383-0.15-0.54883-0.25zm3.209 0.0078c-0.08594 0.0043-0.17227 0.02461-0.25977 0.06836 0.8-0.125 1.3982 0.47383 2.1992 0.17383v-0.04883c-0.4-0.175-0.75 0.05-1.125-0.125-0.3 0.0375-0.55664-0.08125-0.81445-0.06836zm-40.963 0.36914c-0.03828 0.02461-0.05938 0.09141-0.04687 0.22266 0.15 0.15 0.17578 0.45078 0.42578 0.42578 0.1-0.05 0.02383-0.20078 0.04883-0.30078-0.0375-0.1125-0.31289-0.42148-0.42774-0.34766zm41.486 0.33594c-0.16567-0.0074-0.32788-0.007-0.48438 0.01172 0.651 0.075 1.2756 0.40078 1.9746 0.17578v-0.09961c-0.46875 0.0375-0.99322-0.06562-1.4902-0.08789zm-4.0078 0.13086c-0.22512 0-0.4375 0.03086-0.625 0.13086l1.3242 0.05078v-0.125c-0.237-0.025-0.47409-0.05664-0.69922-0.05664zm-38.176 0.18164v0.25c0.1 0.1 0.07578 0.35078 0.30078 0.30078 0.1-0.075 0.02383-0.20078 0.04883-0.30078-0.125-0.075-0.17461-0.3-0.34961-0.25zm57 0.07422c-0.201 0.05-0.29883 0.25039-0.42383 0.40039 0.026 0.1-0.05117 0.25078 0.04883 0.30078 0.226-0.125 0.601-0.40117 0.375-0.70117zm-15.031 0.16797c-0.18589-0.0055-0.37486-0.0047-0.56836 0.0078 0.724 0.075 1.3982 0.32461 2.1992 0.22461v-0.09961c-0.54375-0.0375-1.0732-0.11641-1.6309-0.13281zm-3.6934 0.34766c-0.2125 0.0031-0.43856 0.05976-0.60156 0.13476l1.125 0.05078c-0.112-0.1375-0.31094-0.18867-0.52344-0.18555zm-38.949 0.25976-0.05078 0.17578c0 0.225 0.29961 0.44961 0.47461 0.34961v-0.17578c-0.125-0.175-0.17383-0.34961-0.42383-0.34961zm42.473 0v0.05078l1.8008 0.25v-0.17578l-1.8008-0.125zm15.801 0.125c-0.225 0.025-0.49978 0.30039-0.30078 0.52539h0.17578c0.125-0.15 0.25-0.35039 0.125-0.52539zm-59.285 0.30274c-0.04805 0.01523-0.08828 0.06562-0.11328 0.17188 0.125 0.2 0.27344 0.47656 0.52344 0.35156v-0.17578c-0.054-0.116-0.264-0.396-0.408-0.351zm59.91 0.03711c-0.17306 0.06328-0.26136 0.31758-0.22461 0.48633h0.125c0.226-0.075 0.37383-0.27656 0.29883-0.47656-0.07475-0.03125-0.14153-0.03086-0.19922-0.0098zm-19.949 0.03906c-0.6443-0.0457-1.2821 0.16445-1.9766 0.2207 0.75 0.1 1.851-0.24922 2.625 0.05078v-0.125c-0.21875-0.0875-0.43367-0.13125-0.64844-0.14648zm3.1133 0.01758c-0.09375-0.0031-0.17578 0.02891-0.23828 0.12891 0.175-0.2 0.35078 0.14922 0.55078-0.05078-0.1125-0.0375-0.21875-0.075-0.3125-0.07813zm0.48633 0.07813c0.55 0.175 1.1496 0.37578 1.7246 0.30078v-0.125c-0.575 0.125-1.1236-0.20078-1.7246-0.17578zm17.275 0.17578c-0.151 0.1-0.42556 0.24961-0.35156 0.47461 0.026 0.075 0.10078 0.07617 0.17578 0.07617 0.1-0.175 0.37578-0.25 0.30078-0.5-0.05 0.025-0.101-0.02578-0.125-0.05078zm-43.298 8.4c-0.125 0.01105-0.25 0.04464-0.375 0.11914-0.025 2.575-0.22422 5.7756-0.07422 8.2246l-0.17578 0.09961c-0.7-0.024-0.39883-1.049-0.42383-1.5-0.05-0.4-0.67617-0.19883-0.95117-0.17383-0.05 0.324 0.32656 0.12483 0.47656 0.17383 0.225 0.476 0.075 1.176 0.125 1.625 0.3 0.326 0.925 0.12478 1.375 0.17578-0.05-2.849 0.075-5.4984 0.125-8.2734 0.15-0.225 0.44844-0.074 0.64844-0.125 0.35 0.325 0.12617 0.84744 0.20117 1.2734 0.35 0.375 0.95-0.02344 1.375 0.35156l0.04883 3.5508 1.375 0.04883c0.35 0.451 0.12617 1.1248 0.20117 1.6758 0.4 0.074 0.94883 0.15022 1.2988-0.05078l0.07617-3.9492c0.5-0.075 1.15-0.15117 1.625 0.04883v5.4512h1.5488v-2.1504l0.17578-0.17578c0.825 0.351 0.47539-0.59944 0.90039-0.77344 0.375-0.301 1.5242 0.375 1.5742-0.375h-2.0996l-0.07422 0.77344-0.82617 0.125v2.1016l-0.125 0.125c-0.2-0.125-0.54961 0.274-0.72461-0.125v-5.2754l-0.125-0.125c-0.775 0.074-1.5254-0.12478-2.2754 0.07422v3.8262l-0.125 0.125c-0.9 0.024-0.27539-1.125-0.52539-1.625-0.425-0.077-1.2 0.19844-1.5-0.22656v-3.5c-0.15-0.325-0.59844-0.09983-0.89844-0.17383-1 0.25-0.47656-0.92717-0.60156-1.3262-0.4875 0.09375-0.875-0.07806-1.25-0.04492zm0.45117 0.77148v1.2734c0.2-0.3 0.2-0.92444 0-1.2734zm-0.05078 1.625v1.1992h0.17578l-0.05078-1.1992h-0.125zm6.0508 1.25v1.1992h0.125c0.05-0.35 0.2-0.94922-0.125-1.1992zm-6.0508 0.29883v0.30078h0.17578v-0.17578c-0.05-0.025-0.10078-0.15-0.17578-0.125zm-3.5996 0.30078c-0.25 1.525-1.625 2.6744-1.5 4.2754 0.25 0.5 0.19961 1.1 0.72461 1.5 0.125 0 0.27461 0.024 0.34961-0.125-0.325-0.601 0.35-1.3008 0.125-1.8008-0.175 0.4-0.34883 0.80022-0.54883 1.1992-0.875-1.375 0.52539-2.5484 0.90039-3.7734 0.35 0.549 0.325 1.2748 0.5 1.9238 0.05 0.75-0.90078 1.2014-0.80078 1.9004 0.325-0.175 0.60039-0.55022 0.90039-0.82422 1-0.976-0.000781-2.15-0.30078-3.125-0.1-0.375 0.05039-0.97639-0.34961-1.1504zm3.6504 0.42383v0.375h0.07422c0.15-0.125-0.04922-0.25-0.07422-0.375zm5.9492 0.55078v1.125h0.17578v-1.125h-0.17578zm5.1445 0.05469c-0.05625 0.0055-0.11367 0.02656-0.16992 0.07031 0.025 0.076-0.04883 0.17561 0.07617 0.22461 0.125-0.025 0.52461 0.07617 0.59961-0.17383-0.16875-0.0195-0.33711-0.13745-0.50586-0.12109zm0.79297 0.05273c-0.06875 0-0.12383 0.03019-0.11133 0.11719h0.29883v-0.04883c-0.0375-0.038-0.11875-0.06836-0.1875-0.06836zm-26.684 0.42383c-0.14062 0.000125-0.27891 0.03114-0.37891 0.11914l0.17578 0.25c0.2-0.1 0.59961-0.02578 0.59961-0.30078-0.1125-0.0375-0.25586-0.06848-0.39648-0.06836zm17.779 0.22852c-0.01953-0.007-0.04453-0.0031-0.08203 0.01563v0.29883h0.17383v-0.125c-0.0375-0.05625-0.0332-0.16836-0.0918-0.18945zm7.2168 0.01563v0.47461c0.075 0 0.15117 0.02422 0.20117-0.05078 0.025-0.175-0.05117-0.37383-0.20117-0.42383zm-10.25 0.42383 0.05078 0.35156h0.07422c-0.025-0.051 0.02578-0.076 0.05078-0.125l-0.17578-0.22656zm40.047 0.06641c-0.1595-0.02813-0.34777 0.0099-0.44727 0.10938 0.175 0.225 0.45156 0.17578 0.72656 0.17578 0.0125-0.163-0.1198-0.25703-0.2793-0.28516zm-37.096 0.16016c0.000001 0.125-0.07539 0.32383 0.09961 0.29883v-0.29883h-0.09961zm-17.26 0.0625c-0.09063 0-0.19062 0.02422-0.26562 0.01172-0.125 0.026-0.22578 0.15078-0.17578 0.30078 0.2-0.025 0.47539 0.04883 0.65039-0.07617v-0.09961c-0.0375-0.1125-0.11836-0.13672-0.20898-0.13672zm7.9902 0.0039c-0.07734-0.02606-0.17422 0.03906-0.23047 0.13281 0.1 0.026 0.17383 0.15061 0.29883 0.09961v-0.17383c-0.01875-0.03125-0.04258-0.04991-0.06836-0.05859zm0.417 0.004c-0.0582 0.0067-0.10703 0.05273-0.14453 0.17773l0.04883 0.04883c0.15-0.025 0.35078 0.07639 0.42578-0.09961 0.1 0.201 0.35039 0.07561 0.52539 0.09961 0.075-0.174-0.15156-0.14961-0.22656-0.22461-0.206 0.319-0.454-0.022-0.629-0.002zm16.154 0.0039v0.52344c0.075 0 0.15117 0.02522 0.20117-0.05078 0.025-0.2-0.05117-0.39866-0.20117-0.47266zm-4.25 0.12305v0.30078h0.17578v-0.20117c0.025-0.1-0.10078-0.12461-0.17578-0.09961zm2.5762 0.05078v1.3242h0.125c0.05-0.475 0.2-0.97522-0.125-1.3242zm-8.5762 0.25c-0.1 0.075-0.07422 0.27461 0.05078 0.34961 0.125-0.051 0.04922-0.15 0.07422-0.25 0.05-0.099-0.1-0.02461-0.125-0.09961zm39.6 0.22461v0.25c0.2 0.074 0.60156 0.12383 0.72656-0.07617-0.2-0.149-0.45156-0.19883-0.72656-0.17383zm-54 0.29883c-0.075 0.101-0.325 0.05-0.25 0.25 0.2 0.075 0.47578 0.075 0.67578 0v-0.17383l-0.42578-0.07617zm54.076 0.79688c-0.14375-0.02175-0.27617 0.0042-0.32617 0.17969 0.175 0.2 0.50156 0.19961 0.72656 0.09961v-0.17578c-0.1-0.0125-0.25664-0.08177-0.40039-0.10352zm-31.1 0.05469c-0.025 0.174-0.175 0.32461 0 0.47461 0.075 0 0.14883 0.02522 0.17383-0.05078 0.05-0.2-0.02383-0.32483-0.17383-0.42383zm-22.629 0.17969c-0.14688 0.025-0.29648 0.10742-0.39648 0.16992-0.025 0.1 0.07461 0.12383 0.09961 0.17383 0.2-0.15 0.57578 0.07617 0.67578-0.17383-0.0875-0.1625-0.23203-0.19492-0.37891-0.16992zm22.629 0.64453v0.375h0.125c0-0.15 0.025-0.3-0.125-0.375zm31.039 0.08203c-0.17812-0.03737-0.32773-0.01925-0.36523 0.21875 0.174 0.199 0.50039 0.1 0.77539 0.125 0.05-0.077 0.149-0.12556 0.125-0.22656-0.15 0.0125-0.35703-0.07981-0.53516-0.11719zm-53.512 0.40234c-0.10938 0.0031-0.22812 0.02813-0.32812 0.01563v0.30078c0.25 0.025 0.49961-0.05117 0.59961-0.20117-0.0625-0.1-0.16211-0.11836-0.27148-0.11523zm53.301 0.53516c-0.15938-0.0062-0.30302 0.02969-0.35352 0.17969 0.275 0.325 0.57539 0.175 0.90039 0.125v-0.17383c-0.05 0.026-0.07561-0.02478-0.09961-0.05078-0.113-0.024-0.28789-0.07383-0.44726-0.08008zm-53.16 0.66797c-0.09375 0-0.19297 0.01172-0.29297 0.01172v0.22656c0.2-0.026 0.39883 0.04922 0.54883-0.05078v-0.125c-0.075-0.05-0.16211-0.0625-0.25586-0.0625zm52.93 0.1875c-0.175 0.051-0.47383 0.17578-0.29883 0.42578 0.25-0.051 0.54861 0.1 0.72461-0.125-0.051-0.201-0.27478-0.24978-0.42578-0.30078zm-37.902 0.89648c-0.04062 0.0032-0.08359 0.01691-0.12109 0.0039v0.17383h0.22461v-0.125c-0.025-0.05-0.06289-0.05598-0.10352-0.05273zm2.4531 0.05273v0.125h0.125v-0.125h-0.125zm-0.29883 0.60156v0.125h0.125v-0.125h-0.125zm-12.273 8.988c-0.04648-0.0053-0.09609-0.003-0.15234 0.0098 0.1 0.125 0.30078 0.324 0.55078 0.25v-0.125c-0.15-0.03825-0.25898-0.11873-0.39844-0.13476zm40.998 0.0098c-0.226-0.026-0.42539 0.17383-0.52539 0.29883 0.225 0.025 0.42439-0.17383 0.52539-0.29883zm-41.275 0.84961v0.17383c0.15 0.05 0.29961 0.3 0.47461 0.125 0.025-0.274-0.29961-0.19883-0.47461-0.29883zm41.234 0.11328c-0.11724-0.01509-0.2348 0.0918-0.31055 0.18555l0.05078 0.05078c0.175 0.051 0.274-0.07478 0.375-0.17578-0.0375-0.03725-0.07616-0.05552-0.11523-0.06055zm-37.158 1.0098c0.05 1.625 0.24922 3.4-0.17578 5 0.4 0.175 0.67422 0.59922 1.0742 0.69922 0.175-0.15-0.02383-0.29861-0.04883-0.47461-0.075-0.55-0.15117-1.2768 0.04883-1.8008l1.2754 0.85156c0.325 0.225 0.60117 0.54861 0.95117 0.72461 0.1-0.275 0.1-0.69844 0-0.89844-0.85-0.224-1.5754-0.90039-2.2754-1.4004 0.1-0.475-0.22617-0.949 0.04883-1.375 0.625 0.5 1.3258 0.82617 1.9258 1.3262 0.325 0.1 0.37461 0.54861 0.72461 0.59961l0.05078-0.90039c-1.275-0.55-2.4246-1.4756-3.5996-2.3516zm-4.4258 0.002 0.05078 0.19922c0.15 0.000001 0.24883 0.29961 0.42383 0.09961 0-0.225-0.27461-0.27283-0.47461-0.29883zm41.652 0.11914c-0.15497 0.02461-0.25391 0.13594-0.25391 0.30469 0.151-0.025 0.37478-0.09983 0.42578-0.29883-0.0625-0.0125-0.12022-0.01406-0.17188-0.0059zm0.17969 1.0879c-0.1043-0.01097-0.22578 0.12969-0.20703 0.24219 0.175 0.076 0.20078-0.12483 0.30078-0.17383-0.025-0.044-0.05898-0.0647-0.09375-0.06836zm-41.779 0.0078c-0.04609 0.0098-0.08945 0.0293-0.12695 0.06055 0.125 0.075 0.25 0.32461 0.5 0.22461v-0.09961c-0.075-0.15075-0.23476-0.21508-0.37305-0.18555zm35.871 0.48437-1.125 0.77539c-0.025 0.151 0.000782 0.32561 0.17578 0.34961-0.049 0.75-0.35039 1.3496-0.65039 1.9746-0.475-0.226-1.0984-0.7-1.1484-1.25l-1.375 0.77539v0.125c0.826 0.201 1.5496 0.77517 2.2246 1.2012-0.15 0.875-0.64961 1.5984-0.97461 2.3984-0.25 0.425-0.92617 0.79922-0.95117 1.1992 0.526-0.224 1.0758-0.44844 1.5508-0.77344-0.225-0.9 0.45039-1.6994 0.77539-2.5254 0.575 0.326 1.4732 0.601 1.5742 1.25h0.17578c0.45-0.274 1.1242-0.42422 1.3242-0.94922-1.1 0.025-1.9504-0.676-2.7754-1.25 0.525-1.051 0.62617-2.2252 1.3262-3.2012l-0.12695-0.09961zm-36.225 0.52539-0.07422 0.125c0.1 0.125 0.35078 0.34978 0.55078 0.17578-0.1-0.125-0.27656-0.27578-0.47656-0.30078zm42.432 0.20312c-0.10688-0.0035-0.23786 0.10941-0.25586 0.22266l0.05078 0.04883c0.1-0.075 0.29883-0.04861 0.29883-0.22461-0.025-0.03125-0.05813-0.04572-0.09375-0.04687zm-33.381 0.39648c0.325 1.702-0.075 3.5496-0.125 5.0996 0.35 0.175 0.72539 0.57578 1.0254 0.55078-0.275-1.5 0-2.9002 0-4.5742 0.025-0.176 0.35-0.22656 0.25-0.47656-0.425-0.075-0.67539-0.62361-1.1504-0.59961zm22.574 1.748c-0.301 0.327-0.87556 0.30156-0.97656 0.72656 0.175-0.075 0.25 0.0758 0.375 0.17578l0.05078 2.75c-0.024 0.551-0.10039 1.125-0.65039 1.375-0.425 0.1-0.94922 0.7-1.3242 0.125-0.125-1.25-0.07422-2.5254 0.17578-3.7754-0.474 0.076-0.87617 0.30078-1.3262 0.42578 0.2 0.725 0.125 1.4996 0.125 2.2246 0.201 0.551-0.19844 1.5506 0.35156 1.9746 0.65 0.326 1.4508-0.074 2.0508-0.375 1.7-0.975 0.77344-3.4996 1.0234-4.9746 0.15-0.199 0.32656-0.42439 0.22656-0.65039v-0.002h-0.10156zm-19.449 0.42773 0.05078 0.47657-1.125 3.125c-0.025 0.224-0.35078 0.14843-0.30078 0.39843 0.2 0.15 0.44961 0.425 0.72461 0.25-0.05-0.426 0.17461-0.74921 0.34961-1.0742 0.575 0.274 1.15 0.54922 1.75 0.82422-0.025 0.55 0.50156 1 0.22656 1.5 0.45 0.2 0.87422 0.60157 1.3242 0.60157-0.725-1.475-1.0008-3.1258-1.5508-4.6758v-0.72656c-0.5-0.225-0.97422-0.47522-1.4492-0.69922zm3 1.125v0.84961c0.65 0 1.1258 0.47461 1.8008 0.47461 0.375 1.176 0.04883 2.6252 0.04883 3.9512 0 0.174-0.27383 0.22483-0.17383 0.42383 0.375 0.201 0.87344 0.275 1.2734 0.25l-0.125-0.42383c-0.125-1.202-0.025-2.6016 0.125-3.8516 0.725 0.175 1.6262 0.175 2.3262 0.25-0.025-0.25 0.04922-0.54844-0.05078-0.77344-0.075 0-0.14883-0.0252-0.17383 0.0488-1.65-0.125-3.5508-0.34922-5.0508-1.1992zm9.7734 1.0742c-0.474 0.1-1.0478 0.076-1.4238 0.25l0.22461 0.25 0.07422 4.6758 2.1504-0.47461c0.575-0.201 1.125-0.65078 1.75-0.55078-0.15-0.299 0-0.79939-0.125-1.0254h-0.125c-0.3 0.951-1.4006 0.80039-2.0996 1.1504-0.175 0.051-0.60039 0.176-0.65039-0.125v-3.6504c0-0.199 0.34961-0.25 0.22461-0.5z"/><path fill="#ffd520" d="m58.807 101.1c-0.25 0.526-0.45039 1.0758-0.52539 1.6758 0.4 0.2 0.825 0.57461 1.25 0.59961-0.25-0.75-0.47461-1.5244-0.72461-2.2754z"/></g></g></svg>
